<?xml version="1.0" encoding="utf-8"?>
<!-- Generator: Adobe Illustrator 16.0.0, SVG Export Plug-In . SVG Version: 6.00 Build 0)  -->
<!DOCTYPE svg PUBLIC "-//W3C//DTD SVG 1.1//EN" "http://www.w3.org/Graphics/SVG/1.1/DTD/svg11.dtd">
<svg version="1.1" id="Layer_1" xmlns="http://www.w3.org/2000/svg" xmlns:xlink="http://www.w3.org/1999/xlink" x="0px" y="0px"
	 width="3649.801px" height="2222.34px" viewBox="0 0 3649.801 2222.34" enable-background="new 0 0 3649.801 2222.34"
	 xml:space="preserve">
<g>
	<defs>
		<rect id="SVGID_1_" width="3649.801" height="2222.34"/>
	</defs>
	<clipPath id="SVGID_2_">
		<use xlink:href="#SVGID_1_"  overflow="visible"/>
	</clipPath>
	<path clip-path="url(#SVGID_2_)" fill="#FFFFFF" d="M1419.751,949.637l-0.048,0.036l0.024-0.023
		c-5.685,4.89-12.379,7.179-18.356,7.168c-6.221-0.044-11.409-2.303-14.931-6.561l0.024,0.042L1255.307,791.83l0.023,0.024
		c-0.631-0.783-1.226-1.712-1.907-3.006l-0.461-0.864l-121.767-147.229c-2.794-3.384-4.204-7.587-4.215-12.368
		c-0.025-7.197,3.486-15.435,10.484-21.369l0.024-0.023c5.649-4.854,12.306-7.145,18.272-7.132
		c6.208,0.043,11.396,2.302,14.991,6.608l130.988,158.481c0.68,0.875,1.215,1.694,1.846,2.885l0.45,0.844l121.876,147.353
		l0.012,0.025c2.819,3.396,4.216,7.58,4.24,12.343C1430.187,935.557,1426.689,943.738,1419.751,949.637z"/>
	<path clip-path="url(#SVGID_2_)" fill="#FFFFFF" d="M2422.667,1210.459c-1.541,2.489-2.77,4.47-4.166,6.17l-0.013,0.014
		l-161.918,199.301c-1.616,1.967-2.346,4.457-2.079,6.972c0.257,2.515,1.52,4.8,3.477,6.39l45.557,36.58
		c7.849,6.307,11.906,15.552,11.918,24.93c-0.012,7.034-2.285,14.021-6.998,19.912l-0.023,0.025
		c-6.317,7.873-15.49,11.905-24.856,11.929c-7.047,0-14.032-2.295-19.972-7.021l-0.146-0.146c-0.013,0-1.397-1.044-4.302-3.328
		c-8.735-6.79-31.003-24.249-69.139-54.948c-8.819-7.059-14.177-13.766-17.373-19.814c-3.193-6.076-4.287-11.518-4.3-16.608
		c-0.023-8.37,3.244-16.036,6.731-21.661c1.736-2.793,3.486-5.028,4.773-6.535l1.47-1.652l0.354-0.365l0.023-0.036l0.013,0.013
		l0.826-0.898l178.33-219.917h-0.011l1.979-2.832c0.962-1.507,2.104-3.364,3.16-5.065c1.032-1.665,2.027-3.243,2.345-3.717
		l0.668-1.166l118.341-242.58c6.718,4.244,16.255,10.362,25.487,16.563c9.841,6.592,19.378,13.419,23.485,17.155l-0.024-0.037
		c5.696,5.097,15.744,17.938,23.604,31.574c3.972,6.84,7.495,13.94,9.95,20.422c2.479,6.458,3.777,12.344,3.741,16.2
		c0.013,2.594-0.521,3.992-0.925,4.616l-149.38,188.713L2422.667,1210.459z"/>
	<path clip-path="url(#SVGID_2_)" fill="#424143" d="M2316.134,985.627c-0.145-0.631-2.709-14.02-11.431-28.16
		c-4.362-7.07-10.375-14.372-18.649-20.034c-8.248-5.667-18.877-9.487-31.343-9.464h-0.23h0.036l-7.702,0.037
		c-12.489,0-23.132,3.869-31.369,9.579c-12.427,8.596-19.645,20.714-23.993,30.482c-4.337,9.797-5.795,17.476-5.893,17.949
		c-0.972,5.151,2.418,10.101,7.557,11.073c5.15,0.966,10.097-2.417,11.068-7.551v-0.029c0.134-0.82,2.696-12.411,9.451-22.914
		c3.377-5.259,7.702-10.21,13.047-13.745c5.382-3.536,11.725-5.85,20.192-5.899l7.727-0.035h-0.024h0.061h0.073
		c8.698,0.035,15.175,2.466,20.653,6.171c8.2,5.533,13.995,14.567,17.493,22.427c1.787,3.906,2.977,7.465,3.705,9.992
		c0.366,1.258,0.645,2.267,0.791,2.922l0.157,0.71l0.023,0.134c1.009,5.14,6.003,8.486,11.143,7.478
		C2313.802,995.742,2317.145,990.767,2316.134,985.627"/>
	<path clip-path="url(#SVGID_2_)" fill="#424143" d="M2175.174,1383.699l7.35,5.979l178.33-219.917h-0.011l1.979-2.832
		c0.962-1.507,2.104-3.364,3.16-5.065c1.032-1.665,2.027-3.243,2.345-3.717l0.668-1.166l122.957-252.057l-8.517-4.155l-4.98,8.062
		c0,0,2.831,1.742,7.314,4.58c6.741,4.239,17.142,10.896,27.054,17.554c9.841,6.592,19.378,13.419,23.485,17.155l-0.024-0.037
		c5.696,5.097,15.744,17.938,23.604,31.574c3.972,6.84,7.495,13.94,9.95,20.422c2.479,6.458,3.777,12.344,3.741,16.2
		c0.013,2.698-0.571,4.155-0.972,4.739l7.859,5.289l-7.435-5.885l-149.758,189.186l-0.607,0.852c-1.541,2.489-2.77,4.47-4.166,6.17
		l-0.013,0.014l-161.918,199.301c-1.616,1.967-2.346,4.457-2.079,6.972c0.257,2.515,1.52,4.8,3.477,6.39l45.557,36.58
		c7.849,6.307,11.906,15.552,11.918,24.93c-0.012,7.034-2.285,14.021-6.998,19.912l-0.023,0.025
		c-6.317,7.873-15.49,11.905-24.856,11.929c-7.047,0-14.032-2.295-19.972-7.021l-0.146-0.146c-0.013,0-1.397-1.044-4.302-3.328
		c-8.735-6.79-31.003-24.249-69.139-54.948c-8.819-7.059-14.177-13.766-17.373-19.814c-3.193-6.076-4.287-11.518-4.3-16.608
		c-0.023-8.37,3.244-16.036,6.731-21.661c1.736-2.793,3.486-5.028,4.773-6.535l1.47-1.652l0.354-0.365l0.061-0.072l-2.516-2.576
		l2.491,2.625l0.024-0.049l-2.516-2.576l2.491,2.625l0.826-0.898L2175.174,1383.699l-6.55-6.852c-0.388,0.389-4.98,4.764-9.67,12.33
		c-4.666,7.545-9.55,18.405-9.573,31.636c-0.011,7.983,1.884,16.729,6.489,25.453c4.604,8.722,11.843,17.396,22.268,25.755
		c50.927,40.965,73.694,58.482,73.768,58.532l5.77-7.509l-5.94,7.388c9.354,7.52,20.666,11.2,31.83,11.188
		c14.832,0.012,29.655-6.524,39.653-19.061l-0.013,0.023c7.509-9.33,11.189-20.628,11.189-31.77c0.011-14.832-6.513-29.654-19-39.69
		l-38.123-30.638l155.917-191.902v0.013c2.418-2.952,4.082-5.759,5.552-8.079l-8.03-5.03l7.423,5.881l149.77-189.192l0.438-0.595
		c3.171-4.763,4.191-10.14,4.191-15.303c-0.025-7.501-2.029-15.112-4.969-22.912c-4.41-11.662-11.117-23.653-18.115-34.186
		c-7.045-10.553-14.2-19.445-20.433-25.131l-0.037-0.023c-3.911-3.5-9.39-7.569-15.72-12.022
		c-18.879-13.247-44.768-29.247-44.841-29.297c-2.284-1.402-5.054-1.779-7.629-1.043c-2.564,0.747-4.69,2.55-5.869,4.949
		l-122.944,252.057l8.504,4.155l-7.836-5.321c-0.998,1.482-2.407,3.802-3.839,6.123l-1.933,3.061l-0.668,1.021l-0.157,0.218
		l2.259,1.616l-2.162-1.737l-0.097,0.121l2.259,1.616l-2.162-1.737h-0.013l-178.331,219.94L2175.174,1383.699l-6.55-6.852
		L2175.174,1383.699z"/>
	<path clip-path="url(#SVGID_2_)" fill="#FFFFFF" d="M2535.056,622.641c14.312-12.264,34.405-12.015,44.877,0.613l245.101,297.359
		c10.436,12.593,7.278,32.771-7.034,45c-14.371,12.324-34.537,12.038-44.912-0.535L2527.911,667.78
		C2517.499,655.188,2520.635,634.937,2535.056,622.641"/>
	<path clip-path="url(#SVGID_2_)" fill="#424143" d="M2541.215,629.839c5.371-4.604,11.675-6.755,17.287-6.755
		c5.881,0.036,10.752,2.164,14.129,6.209l-0.013-0.013l245.103,297.358l0.023,0.025c2.625,3.184,3.961,7.113,3.975,11.607
		c0.023,6.767-3.28,14.543-9.877,20.137h-0.014c-5.395,4.641-11.748,6.809-17.386,6.798c-5.879-0.025-10.739-2.169-14.067-6.172
		L2535.236,661.76v-0.011c-2.646-3.173-3.959-7.132-3.982-11.646c-0.014-6.804,3.304-14.622,9.938-20.252
		c3.996-3.396,4.457-9.367,1.068-13.352c-3.402-3.99-9.379-4.465-13.364-1.069c-10.702,9.167-16.571,21.947-16.595,34.673
		c-0.013,8.384,2.648,16.867,8.311,23.708l245.15,297.285c7.239,8.798,17.991,13.103,28.681,13.067
		c10.388-0.013,20.983-3.869,29.729-11.359v0.013c10.632-9.13,16.475-21.845,16.498-34.546c0.013-8.377-2.659-16.855-8.334-23.701
		l0.025,0.023l-245.126-297.371l-0.013-0.023c-7.276-8.796-18.028-13.103-28.72-13.066c-10.362,0.019-20.919,3.87-29.617,11.311
		c-3.974,3.407-4.436,9.391-1.034,13.362C2531.265,632.785,2537.229,633.247,2541.215,629.839"/>
	<path clip-path="url(#SVGID_2_)" fill="#424143" d="M2535.056,622.641l6.159,7.192c5.371-4.604,11.675-6.755,17.3-6.741
		c5.868,0.036,10.752,2.167,14.116,6.207l0.061,0.06L2698.48,781.57l-0.013-0.023c0.62,0.771,1.093,1.512,1.714,2.673l0.461,0.844
		l117.089,141.594l0.013,0.019c2.612,3.172,3.961,7.102,3.975,11.603c0.023,6.766-3.293,14.528-9.866,20.13l-0.011,0.013
		c-5.419,4.64-11.748,6.791-17.399,6.791c-5.879-0.036-10.739-2.175-14.067-6.173l-0.086-0.097l-125.98-152.254l0.097,0.134
		c-0.559-0.668-1.105-1.543-1.763-2.775l-0.461-0.846l-116.969-141.46c-2.612-3.17-3.948-7.124-3.973-11.632
		c-0.013-6.815,3.317-14.615,9.951-20.264l-0.05,0.037l0.073-0.05L2535.056,622.641l-6.16-7.21
		c-10.715,9.167-16.571,21.94-16.595,34.679c-0.013,8.378,2.648,16.875,8.311,23.715l116.36,140.7l7.302-6.031l-8.359,4.44
		c0.972,1.84,2.188,3.904,3.9,5.982l125.971,152.193h-0.013c7.229,8.785,17.98,13.084,28.67,13.048
		c10.376-0.011,20.97-3.87,29.718-11.358v0.019c10.643-9.136,16.473-21.851,16.496-34.539c0.013-8.384-2.646-16.869-8.332-23.708
		l0.061,0.071l-116.544-140.912l-7.302,6.038l8.371-4.472c-0.948-1.784-2.162-3.765-3.755-5.722l-0.023-0.023l-125.958-152.406
		l0.048,0.047c-7.276-8.795-18.028-13.095-28.707-13.059c-10.362,0.012-20.944,3.87-29.63,11.322l0.048-0.037l-0.037,0.013
		L2535.056,622.641z"/>
	<path clip-path="url(#SVGID_2_)" fill="#FBBEA7" d="M2107.019,1186.148c0.023,8.42,6.961,15.248,15.562,15.211l256.047-0.741
		c8.528-0.025,15.138-6.609,15.138-15.308v-186.43c-0.023-8.357-7.254-14.778-15.793-14.753h-256.036
		c-8.602,0.023-15.5,7.216-15.464,15.599L2107.019,1186.148z"/>
	<path clip-path="url(#SVGID_2_)" fill="#424143" d="M2107.019,1186.148l-8.212,0.023c0.048,13.014,10.703,23.412,23.714,23.399
		h0.037h0.047l256.047-0.741c6.366,0,12.332-2.55,16.571-6.828c4.252-4.263,6.768-10.252,6.756-16.691v-186.43v-0.023
		c0-6.565-2.929-12.489-7.325-16.521c-4.398-4.053-10.291-6.416-16.633-6.416h-0.194l0.146,8.208v-8.208h-256.036h-0.036
		c-13.253,0.123-23.593,10.873-23.641,23.758v0.262l8.213-0.213l-8.213,0.029l0.547,186.416L2107.019,1186.148l8.2-0.023
		l-0.545-186.424v-0.181l-7.328,0.181h7.328v-0.181l-7.328,0.181h7.328v-0.023c0-1.902,0.802-3.754,2.174-5.139
		c1.36-1.38,3.134-2.188,5.114-2.199h-0.025h256.036h0.157l-0.109-5.51v5.51h0.109l-0.109-5.51v5.51c2.2,0,4.154,0.832,5.504,2.066
		c1.323,1.268,2.017,2.72,2.028,4.501v-0.026v27.906v158.523c-0.012,2.26-0.802,3.911-1.98,5.127
		c-1.214,1.189-2.817,1.957-4.957,1.968l-256.045,0.754h0.047h-0.097c-4.155-0.025-7.302-3.243-7.302-7.034L2107.019,1186.148z"/>
	<path clip-path="url(#SVGID_2_)" fill="#FFFFFF" d="M2486.437,330.955c88.235-31.301,142.819,43.614,147.813,85.188
		c1.493,13.188,2.211,34.849,2.211,34.849l34.028,33.027l-1.543,0.425l0.45,0.358l-27.564,6.322
		c-17.339,54.062-64.596,69.989-74.51,72.827c-4.045,1.068-7.752,1.761-11.661,2.569v36.854
		c47.366,23.435,49.188,96.448,49.188,126.874v244.414c0,0,0.123,1.756,0.123,4.545l104.126,206.359
		c1.677,2.416,3.256,4.968,4.582,7.727l112.775,230.691l52.374-25.949c20.457-10.157,45.352-1.75,55.532,18.649
		c10.095,20.47,1.711,45.35-18.746,55.409c0,0-25.366,13.291-83.898,42.326c-58.582,29.011-78.858-28.694-79.296-29.643
		L2629.9,1234.209c-0.741-1.616-5.686-8.722-6.961-10.946l-162.003-183.908l0.084-0.126c-22.377-26.249-17.664-64.566-17.664-64.566
		V729.392c0,0-1.25-92.791,45.071-123.57V565.84c-52.3-15.29-71.396-64.553-76.014-77.632
		C2400.606,454.91,2392.6,364.194,2486.437,330.955"/>
	<path clip-path="url(#SVGID_2_)" fill="#424143" d="M2486.437,330.955l3.17,8.931c13.668-4.841,26.218-6.908,37.759-6.908
		c29.035,0.031,52.19,13.031,69.078,30.421c16.826,17.275,26.739,39.223,28.416,53.88l-0.013-0.079
		c0.692,6.209,1.252,14.847,1.591,21.795c0.377,6.979,0.534,12.296,0.547,12.307c0.086,2.46,1.105,4.775,2.88,6.494l34.041,33.025
		l6.584-6.802l-2.452-9.144l-1.557,0.427c-3.45,0.917-6.062,3.705-6.814,7.185c-0.73,3.5,0.569,7.095,3.34,9.332l0.451,0.364
		l5.939-7.381l-2.125-9.24l-27.554,6.33c-3.27,0.746-5.869,3.146-6.901,6.343c-8.006,24.855-22.621,40.63-36.604,50.86
		c-13.972,10.187-27.227,14.528-31.502,15.744l2.611,9.112l-2.429-9.16c-3.609,0.959-7.12,1.622-11.189,2.466
		c-4.386,0.917-7.532,4.787-7.532,9.264v36.854c0,3.595,2.064,6.9,5.284,8.496c10.071,5.001,17.774,12.576,23.908,22.068
		c9.148,14.179,14.349,32.657,17.045,50.405c2.698,17.756,2.952,34.662,2.952,45.904v244.414l0.037,0.663v0.188
		c0.036,0.469,0.109,1.816,0.109,3.693c0,1.507,0.328,2.933,1.009,4.264l104.113,206.359l0.681,1.142
		c1.494,2.138,2.795,4.253,3.84,6.439l0.024,0.035l112.776,230.692c1.105,2.285,3.073,3.985,5.466,4.811
		c2.395,0.814,4.993,0.658,7.254-0.461l52.36-25.975c4.569-2.258,9.355-3.314,14.13-3.314c11.771,0,23.143,6.523,28.72,17.725
		l-0.023-0.05c2.247,4.545,3.291,9.355,3.291,14.093c0,11.797-6.512,23.132-17.725,28.646l-0.207,0.098
		c-0.011,0-1.556,0.802-4.836,2.504c-9.814,5.064-35.023,17.955-78.869,39.714c-10.689,5.284-19.425,7.155-26.569,7.155
		c-7.118-0.014-12.767-1.798-17.688-4.567c-7.351-4.118-12.927-10.741-16.584-16.523c-1.834-2.891-3.171-5.515-4.058-7.409
		l-0.983-2.262l-0.243-0.654l-0.11-0.268l-0.291-0.657l-0.05-0.121l-122.543-250.568l-8.492,4.155l8.614-3.948
		c-0.704-1.433-1.155-2.091-1.834-3.196c-0.974-1.529-2.188-3.34-3.269-4.991c-1.057-1.604-2.078-3.183-2.285-3.548l-1.08-1.531
		l-162.016-183.907l-7.095,6.268l7.386,5.924l0.097-0.128c2.843-3.554,2.77-8.607-0.181-12.063
		c-13.414-15.502-15.903-37.832-15.819-49.64c0-2.461,0.098-4.452,0.194-5.783l0.109-1.47l0.037-0.335v-0.036l0.073-1.161V729.392
		v-0.139v-0.584c-0.013-3.917,0.291-26.793,5.843-51.674c2.745-12.44,6.816-25.343,12.599-36.549
		c5.771-11.239,13.205-20.63,22.403-26.734c2.636-1.755,4.227-4.731,4.227-7.891V565.84c0-4.204-2.77-7.915-6.804-9.094
		c-23.763-6.956-39.921-21.521-50.975-36.239c-11.02-14.695-16.621-29.333-18.77-35.456v-0.013
		c-3.293-9.178-6.452-24.219-6.439-41.003c0-18.696,3.851-39.524,14.907-58.059c11.091-18.55,29.241-35.218,59.782-46.091
		L2486.437,330.955l-3.159-8.935c-34.186,12.058-56.516,31.956-69.733,54.25c-13.268,22.293-17.567,46.554-17.567,67.765
		c0.024,19.147,3.438,35.852,7.507,47.351v-0.031c2.455,6.969,8.725,23.504,21.491,40.523
		c12.709,17.003,32.255,34.722,60.807,43.056l2.646-9.094h-9.463v39.981h9.463l-5.235-7.897
		c-12.769,8.492-21.965,20.659-28.767,33.848c-10.171,19.82-15.151,42.197-17.774,60.585c-2.601,18.376-2.759,32.741-2.759,36.312
		v0.846l9.464-0.123h-9.464v245.271h9.464l-9.391-1.152c-0.036,0.309-0.499,4.039-0.499,9.938
		c0.086,13.922,2.261,40.479,20.351,61.928l7.203-6.146l-7.386-5.918l-0.098,0.123c-2.892,3.595-2.758,8.722,0.28,12.178
		l162.003,183.921l7.119-6.27l-8.213,4.75c0.997,1.69,2.479,3.876,3.974,6.173l1.955,3l0.607,0.996l0.159-0.098l-0.146,0.073
		l-0.013,0.024l0.159-0.098l-0.146,0.073l0.11,0.22l122.52,250.579l8.516-4.179l-8.565,4.059l7.52-3.573l-7.713,3.122l0.193,0.451
		l7.52-3.573l-7.713,3.122c0,0,0.412,1.082,0.959,2.346c2.03,4.689,6.778,14.541,15.696,23.689
		c8.808,9.148,22.5,17.664,40.625,17.616c10.509,0.024,22.196-2.795,34.977-9.136c58.606-29.061,84.022-42.362,84.094-42.398
		l-4.397-8.408l4.18,8.505c17.943-8.832,28.316-26.899,28.306-45.632c0.011-7.557-1.688-15.259-5.235-22.475l-0.025-0.049
		c-8.918-17.834-26.957-28.209-45.679-28.186c-7.593,0-15.332,1.702-22.561,5.273l-43.796,21.746l-108.61-222.152l0.024,0.049
		c-1.615-3.353-3.475-6.318-5.346-9.015l-7.775,5.407l8.457-4.265l-104.115-206.364l-8.468,4.27h9.477
		c0-3.062-0.134-5.029-0.146-5.199l-9.453,0.654h9.479V730.248c-0.013-15.447-0.427-42.034-7.132-68.396
		c-3.366-13.199-8.336-26.412-15.902-38.178c-7.545-11.741-17.836-22.068-31.442-28.786l-4.189,8.486h9.463v-36.854h-9.463
		l1.931,9.281c3.778-0.797,7.689-1.507,12.16-2.696l0.17-0.05c5.65-1.616,20.97-6.657,37.455-18.648
		c16.45-11.966,34.125-31.173,43.468-60.386l-9.013-2.897l2.125,9.24l27.554-6.33c3.534-0.807,6.304-3.57,7.106-7.107
		c0.826-3.529-0.449-7.233-3.281-9.5l-0.436-0.364l-5.954,7.381l2.479,9.141l1.543-0.424c3.293-0.881,5.855-3.456,6.718-6.768
		c0.852-3.304-0.132-6.791-2.575-9.165l-34.065-33.046l-6.584,6.81l9.464-0.31c-0.011-0.128-0.705-21.722-2.235-35.597l-0.013-0.071
		c-2.526-20.053-14.067-44.429-33.628-64.789c-19.521-20.252-47.72-36.216-82.684-36.192c-13.802,0-28.573,2.491-44.1,7.988
		L2486.437,330.955z"/>
	<path clip-path="url(#SVGID_2_)" fill="#FDDDCE" d="M2522.713,667.872l-116.397,140.711c-0.825,1.543-1.689,3.044-2.819,4.351
		l-125.908,152.272c-10.497,12.592-30.579,12.841-44.939,0.559c-14.36-12.276-17.566-32.469-7.107-45.048l116.53-140.896
		c0.802-1.433,1.653-2.871,2.686-4.152l125.983-152.322"/>
	<path clip-path="url(#SVGID_2_)" fill="#FFFFFF" d="M2522.713,667.872l-245.125,297.334c-10.497,12.592-30.579,12.841-44.939,0.559
		c-14.36-12.276-17.566-32.469-7.107-45.048l245.199-297.371"/>
	<path clip-path="url(#SVGID_2_)" fill="#424143" d="M2515.411,661.846l-245.138,297.335l0.037-0.037
		c-3.391,4.027-8.262,6.16-14.153,6.196c-5.612,0.012-11.955-2.158-17.35-6.768c-6.633-5.648-9.961-13.461-9.938-20.238
		c0.013-4.485,1.337-8.39,3.948-11.562l0.024-0.024l245.223-297.358c3.317-4.045,2.759-10.016-1.286-13.352
		c-4.035-3.322-10.013-2.751-13.352,1.282l-245.199,297.371l0.023-0.037c-5.686,6.828-8.358,15.314-8.334,23.68
		c0.025,12.736,5.905,25.474,16.571,34.641c8.734,7.454,19.304,11.311,29.668,11.311c10.702,0.037,21.431-4.258,28.707-13.011
		l0.036-0.044l245.125-297.333c3.316-4.04,2.745-10.011-1.3-13.335C2524.693,657.229,2518.728,657.801,2515.411,661.846"/>
	<path clip-path="url(#SVGID_2_)" fill="#424143" d="M2623.534,517.365l-32.898-9.688c-4.35-1.294-8.905,1.197-10.205,5.547
		c-1.263,4.354,1.216,8.923,5.564,10.204l32.886,9.689c4.362,1.281,8.918-1.203,10.205-5.547
		C2630.362,523.216,2627.873,518.647,2623.534,517.365"/>
	<path clip-path="url(#SVGID_2_)" fill="#424143" d="M2583.116,442.28c0.741,7.812,7.715,13.485,15.586,12.799
		c8.03-0.711,13.85-7.611,13.134-15.477c-0.778-7.734-7.763-13.509-15.722-12.763C2588.267,427.526,2582.351,434.48,2583.116,442.28
		"/>
	<path clip-path="url(#SVGID_2_)" fill="#FFFFFF" d="M2183.763,1164.172c-13.134,0-23.837-10.545-23.86-23.545l-0.194-66.191
		c-0.023-6.408,2.453-12.405,6.985-16.875c4.482-4.453,10.484-6.9,16.862-6.9l137.901-0.426h0.084
		c13.194,0,23.946,10.601,23.97,23.648c0,0,0.207,55.13,0.207,66.721c0,14.006-9.586,23.52-23.934,23.568h-0.023h-137.889H2183.763z
		"/>
	<path clip-path="url(#SVGID_2_)" fill="#FFFFFF" d="M2321.518,1056.533c9.768,0,17.677,7.685,17.7,17.368
		c0,0,0.194,55.111,0.194,66.715c0,11.625-7.86,17.214-17.641,17.263h-137.899h-0.062c-9.693,0-17.602-7.653-17.627-17.263
		l-0.182-66.206c-0.023-9.707,7.824-17.444,17.578-17.471l137.901-0.406H2321.518 M2321.518,1043.905h-0.013h-0.061l-137.901,0.413
		c-8.065,0.024-15.635,3.135-21.309,8.76c-5.735,5.68-8.893,13.272-8.869,21.368l0.184,66.206
		c0.036,16.461,13.618,29.85,30.261,29.85h137.962c17.835-0.086,30.264-12.38,30.264-29.886c0-11.628-0.184-66.752-0.184-66.752
		C2351.817,1057.341,2338.196,1043.905,2321.518,1043.905"/>
	<path clip-path="url(#SVGID_2_)" fill="#EC2427" d="M2339.218,1073.894l4.41-0.011c-0.024-12.156-9.987-21.782-22.11-21.771h-0.123
		l0.086,4.428l-0.013-4.428l-137.899,0.414c-12.102,0.012-22.014,9.688-22.002,21.842v0.152l4.435-0.103l-4.435,0.011l0.207,66.199
		c0.023,12.112,9.998,21.674,22.049,21.674v-0.534v0.534v-0.534v0.534h0.024h137.925h0.026c5.709-0.025,11.224-1.676,15.416-5.431
		c4.202-3.73,6.657-9.476,6.62-16.254c0-11.628-0.206-66.733-0.206-66.733L2339.218,1073.894l-4.422,0.013
		c0,0.079,0.193,55.132,0.193,66.71c-0.049,4.834-1.518,7.689-3.681,9.681c-2.186,1.97-5.466,3.136-9.561,3.16h0.023h-137.899v4.409
		l0.048-4.409h-0.098c-7.361-0.024-13.204-5.735-13.217-12.854l-0.194-66.247v-0.049l-2.575,0.06h2.575v-0.06l-2.575,0.06h2.575
		c0-7.228,5.806-12.961,13.168-12.998l137.949-0.413h0.025l-0.036-1.986v1.986h0.036l-0.036-1.986v1.986
		c7.398,0.023,13.254,5.776,13.278,12.95L2339.218,1073.894z"/>
	<polyline clip-path="url(#SVGID_2_)" fill="#EC2427" points="2170.29,1083.207 2340.263,1083.207 2340.263,1076.889 
		2170.29,1076.889 	"/>
	<path clip-path="url(#SVGID_2_)" fill="#EC2427" d="M2233.864,1133.338c0-4.229-3.498-7.8-7.812-7.8
		c-4.386,0-7.848,3.621-7.848,7.85c0.024,4.252,3.498,7.811,7.884,7.8C2230.413,1141.174,2233.888,1137.566,2233.864,1133.338"/>
	<path clip-path="url(#SVGID_2_)" fill="#EC2427" d="M2287.088,1133.168c0-4.227-3.547-7.8-7.886-7.8
		c-4.325,0.025-7.763,3.645-7.763,7.873c0.023,4.228,3.462,7.8,7.789,7.8C2283.564,1140.991,2287.112,1137.396,2287.088,1133.168"/>
	<path clip-path="url(#SVGID_2_)" fill="#FFFFFF" d="M641.004,490.561c-9.16-9.178-24.115-9.178-33.312,0L594.22,504.13
		l-49.142,22.111l-38.547-71.063c-10.57-15.824-23.788-16.433-32-17.666c-3.438-0.534-14.991-0.867-14.991-0.867v-20.077
		c26.521-14.753,33.36-43.195,34.94-51.11c4.252-21.234,1.214-76.804-58.472-88.757c-56.14-11.359-82.697,38.875-82.102,64.436
		c0.255,8.091,1.738,21.267,1.738,21.267l-17.811,22.985l0.984,0.025l-0.206,0.272l17.19,1.494
		c15.223,31.229,45.243,36.75,51.486,37.606l0.231,0.013v11.846l-18.964,3.607c0,0-14.554,0.425-22.196,8.869
		c-1.481,1.196-2.891,2.515-4.069,4.118l-55.86,75.997l-40.929-45.359c-8.297-9.117-22.414-9.875-31.574-1.577
		c-9.173,8.235-9.853,22.383-1.568,31.537l59.298,65.646c4.204,4.616,10.254,7.369,16.498,7.369l1.203-0.031
		c6.669-0.358,12.939-3.668,16.862-9.08l42.497-57.811v88.85c-2.515,9.664-42.801,165.309-42.801,222.396h36.872l1.446,20.962
		l6.596,186.06c-0.158,6.754,1.057,16.721,4.119,20.524c4.143,5.303,14.081,5.303,20.798,5.327l19.207,0.146
		c16.583,0,18.879-5.784,19.256-12.738c0.826-12.987-9.439-22.439-18.879-25.24l7.703-176.418l0.388-18.623h20.142l-0.4,20.865
		l15.562,169.171c0,0-23.508,6.349-23.508,28.927c0,14.851,21.176,13.91,21.176,13.91h27.419
		c23.799-4.593,19.937-26.448,19.839-29.983l-0.158-184.953l1.421-17.937h45.946c-13.363-99.286-46.797-202.587-52.58-220.02
		v-72.364l15.854,29.174c4.277,7.8,12.307,12.313,20.726,12.313c3.244,0,6.523-0.668,9.646-2.054l73.075-33.001
		c2.551-1.118,4.957-2.837,6.949-4.805l16.473-16.529C650.25,514.742,650.25,499.793,641.004,490.561"/>
	<path clip-path="url(#SVGID_2_)" fill="#939598" d="M641.004,490.561l5.819-5.795c-6.171-6.196-14.359-9.307-22.462-9.294
		c-8.092-0.013-16.279,3.098-22.476,9.28l-0.024,0.026l-12.403,12.487l-40.796,18.363l-34.916-64.357l-0.388-0.645
		c-6.099-9.22-13.644-14.578-20.642-17.367c-6.949-2.799-13.266-3.286-16.947-3.868l0.037,0.012
		c-2.612-0.383-6.208-0.559-9.695-0.734c-3.402-0.146-6.305-0.238-6.33-0.238l-0.242,8.214h8.212v-20.077h-8.212l3.997,7.174
		c14.979-8.345,24.357-20.538,30.092-31.471c5.747-10.946,8.031-20.829,8.893-25.191c0.9-4.457,1.458-9.906,1.47-16.061
		c-0.023-13.873-2.891-31.439-12.805-47.385c-9.841-15.964-27.152-29.783-53.563-34.982h0.012
		c-6.062-1.233-11.881-1.817-17.445-1.817c-25.063-0.048-44.197,12.028-56.297,26.936c-12.162,15.015-18.114,32.515-18.211,46.534
		l0.012,1.021v0.079c0.28,8.681,1.774,21.796,1.787,21.905l8.164-0.906l-6.5-5.041l-17.81,23.004
		c-1.896,2.436-2.248,5.734-0.935,8.522c1.323,2.801,4.082,4.616,7.167,4.713l1.009,0.024l0.242-8.212l-6.487-5.012l-0.207,0.272
		c-1.846,2.376-2.247,5.56-1.021,8.311c1.204,2.764,3.803,4.629,6.804,4.89l17.191,1.482l0.704-8.177l-7.386,3.597
		c8.456,17.402,21.296,27.869,32.655,33.853c11.372,6.019,21.358,7.774,25.099,8.298l0.462,0.048l0.243,0.013l0.644-8.188h-8.212
		v5.055l-12.295,2.337l1.543,8.062l-0.243-8.2c-0.388,0.013-4.531,0.139-9.998,1.506c-5.431,1.423-12.44,3.967-18.041,10.04
		l6.086,5.523l-5.151-6.396c-1.834,1.471-3.79,3.273-5.528,5.637l-0.012,0.013l-49.883,67.886l-34.186-37.891l-0.025-0.025
		c-6.038-6.621-14.372-10.04-22.694-10.029c-7.265-0.011-14.651,2.612-20.471,7.904l0.037-0.023
		c-6.682,5.981-10.095,14.34-10.095,22.639c0,7.289,2.636,14.693,7.92,20.513l-0.012-0.014l59.31,65.659l0.024,0.013
		c5.759,6.322,13.911,10.029,22.561,10.053l0.134-0.013l1.19-0.011l0.328-0.013c9.087-0.498,17.615-4.963,23.058-12.466l-0.037,0.05
		l27.675-37.644v63.817h8.213l-7.946-2.078c-1.276,4.902-11.99,46.306-22.414,93.729c-5.225,23.72-10.352,48.941-14.215,71.914
		c-3.838,23.016-6.426,43.646-6.438,58.831c0,2.169,0.862,4.283,2.394,5.813c1.531,1.53,3.644,2.399,5.819,2.399h29.206
		l0.924,13.174l6.584,185.92l8.201-0.285l-8.201-0.214l-0.023,1.495c0.012,3.844,0.352,8.156,1.141,12.33
		c0.888,4.191,1.787,8.108,4.811,12.064l6.391-5.151l-6.464,5.055c4.217,5.224,9.805,6.814,14.506,7.684
		c4.787,0.826,9.367,0.783,12.72,0.795h-0.023l19.207,0.151h0.06c9.136-0.048,15.854-1.401,21.066-5.745
		c2.527-2.151,4.229-4.976,5.115-7.588c0.911-2.641,1.154-5.054,1.276-7.168l-0.013,0.073l0.061-1.986
		c0.013-8.376-3.414-15.628-8.091-20.901c-4.713-5.303-10.605-8.924-16.691-10.752l-2.345,7.878l8.212,0.358l7.703-176.418v-0.182
		l0.219-10.587h3.718l-0.232,12.487l0.025,0.912l15.575,169.184l8.176-0.76l-2.138-7.92c-0.583,0.188-7.302,1.968-14.542,7.35
		c-3.596,2.703-7.362,6.371-10.242,11.31c-2.891,4.915-4.798,11.111-4.786,18.188c-0.049,5.028,1.762,9.768,4.592,13.035
		c4.289,4.957,9.67,6.87,14.044,7.951c4.434,1.032,8.176,1.147,9.998,1.147l1.105-0.018l-0.364-8.206v8.206h27.419l1.555-0.145
		c10.739-1.957,18.368-7.716,22.232-14.384c3.936-6.628,4.531-13.372,4.555-18.072c0-1.591-0.085-2.977-0.158-4.046l-0.109-1.294
		l-0.024-0.382v-0.068l-8.212,0.201l8.212-0.013l-0.158-184.611l0.801-10.053h38.354c2.37,0,4.604-1.021,6.172-2.801
		c1.579-1.792,2.283-4.155,1.955-6.505c-13.509-100.282-47.052-203.82-52.908-221.516l-7.8,2.589h8.213v-40.03l0.425,0.759
		l0.013,0.037c5.746,10.459,16.595,16.582,27.929,16.571c4.374,0,8.808-0.912,12.975-2.765l0.062-0.025l73.074-33.001l-3.389-7.478
		l3.28,7.524c3.681-1.614,6.803-3.904,9.428-6.469l0.061-0.06l16.473-16.535l-0.036,0.037c6.231-6.16,9.378-14.354,9.366-22.47
		c0.012-8.108-3.123-16.309-9.343-22.5l0.012,0.014L641.004,490.561l-5.794,5.806c3.025,3.037,4.506,6.933,4.518,10.886
		c-0.012,3.962-1.481,7.818-4.495,10.8l-0.037,0.037l-16.485,16.534l5.819,5.796l-5.747-5.856c-1.385,1.354-3.05,2.508-4.471,3.123
		l-0.109,0.048l-73.075,33.003l0.061-0.025c-2.065,0.924-4.228,1.361-6.33,1.361c-5.479-0.013-10.715-2.929-13.534-8.056
		l0.025,0.031l-15.854-29.176c-1.774-3.285-5.601-4.949-9.233-4.032c-3.633,0.923-6.196,4.208-6.196,7.951v72.364l0.426,2.586
		c5.71,17.174,39.009,120.237,52.228,218.533l8.139-1.1v-8.206h-45.946c-4.289,0-7.848,3.28-8.188,7.562l-1.422,17.938l-0.024,0.66
		l0.17,184.936v0.199l0.157,2.516l0.11,2.874c0.023,3.146-0.535,6.888-2.211,9.639c-1.725,2.71-4.167,5.214-11.25,6.694l1.555,8.062
		v-8.214h-27.419l-0.353,0.014h-0.024h-0.364c-1.312,0.036-5.686-0.236-8.602-1.439c-1.47-0.578-2.442-1.294-2.879-1.828
		c-0.424-0.578-0.692-0.875-0.741-2.442c0.013-4.216,1.033-7.277,2.552-9.9c2.259-3.896,5.989-6.804,9.306-8.646
		c1.64-0.923,3.146-1.572,4.191-1.968l1.166-0.414l0.243-0.071l-0.316-1.032l0.292,1.044l0.024-0.012l-0.316-1.032l0.292,1.044
		c3.851-1.044,6.402-4.714,6.038-8.681l-15.526-168.729l0.388-20.401c0.062-2.193-0.802-4.344-2.332-5.911
		c-1.543-1.568-3.669-2.46-5.869-2.46H423.42c-4.47,0-8.127,3.576-8.212,8.049l-0.389,18.52l-7.69,176.314
		c-0.159,3.772,2.259,7.157,5.879,8.236c2.977,0.863,6.548,3.014,9.027,5.863c2.527,2.885,3.997,6.184,4.01,10.04l-0.025,0.941v0.08
		c-0.073,1.354-0.255,2.271-0.401,2.684l-0.972,0.917c-1.094,0.578-4.167,1.398-9.695,1.373h0.061l-19.208-0.152h-0.036
		c-3.342,0-7.095-0.047-9.986-0.558c-1.434-0.249-2.625-0.608-3.341-0.948l-1.021-0.655l-0.085-0.103l-0.692,0.563l0.729-0.521
		l-0.037-0.042l-0.692,0.563l0.729-0.521c-0.097,0.013-1.106-2.345-1.543-5.151c-0.535-2.85-0.802-6.245-0.802-8.983l0.012-1.069
		v-0.511l-6.596-186.059l-0.025-0.272l-1.458-20.963c-0.291-4.295-3.875-7.635-8.176-7.635h-36.872v8.206h8.201
		c-0.012-13.357,2.43-33.586,6.221-56.115c11.347-67.754,34.466-157.071,36.336-164.214l0.255-2.066v-88.85
		c0-3.541-2.272-6.706-5.65-7.812c-3.364-1.093-7.082,0.091-9.184,2.952l-42.496,57.81l-0.037,0.05
		c-2.394,3.333-6.378,5.471-10.654,5.696l0.449,8.194l-0.133-8.205l-1.191,0.023l0.122,8.213v-8.226
		c-3.826,0.025-7.799-1.743-10.423-4.664l0.024,0.023l-59.298-65.658h-0.012c-2.467-2.738-3.658-6.087-3.658-9.493
		c0-3.882,1.543-7.655,4.629-10.425l0.023-0.023c2.721-2.468,6.038-3.634,9.44-3.645c3.9,0.011,7.714,1.567,10.534,4.664
		l-0.013-0.029l40.929,45.375c1.653,1.829,4.045,2.819,6.512,2.696c2.467-0.126,4.738-1.354,6.208-3.346l55.849-75.997v0.013
		l2.599-2.601l0.923-0.887c2.066-2.362,6.16-4.239,9.914-5.146c1.858-0.474,3.571-0.733,4.773-0.874l1.361-0.121l0.304-0.024h0.024
		l1.287-0.141l18.965-3.62c3.863-0.734,6.682-4.117,6.682-8.06v-11.846c0-4.275-3.293-7.836-7.569-8.182l-0.23-0.013l-0.645,8.182
		l1.106-8.133c-2.502-0.335-10.654-1.768-19.645-6.53c-9.026-4.806-18.794-12.713-25.561-26.538
		c-1.276-2.602-3.815-4.339-6.683-4.588l-17.19-1.48l-0.704,8.169l6.512,5.03l0.194-0.274c1.895-2.453,2.248-5.732,0.936-8.522
		c-1.324-2.799-4.082-4.616-7.18-4.7l-0.997-0.037l-0.243,8.206l6.488,5.03l17.809-22.991c1.3-1.694,1.908-3.833,1.677-5.947
		c0-0.013-0.364-3.22-0.766-7.453c-0.401-4.203-0.814-9.439-0.936-13.145v0.073l-0.012-0.651
		c-0.085-9.189,4.714-24.304,14.505-36.124c9.853-11.917,23.873-20.866,43.59-20.913c4.422,0,9.136,0.461,14.202,1.482h0.012
		c22.463,4.591,35.025,15.19,42.86,27.564c7.763,12.403,10.327,27.099,10.303,38.705c0,5.109-0.486,9.604-1.143,12.836
		c-0.705,3.536-2.636,11.845-7.337,20.775c-4.714,8.947-12.015,18.351-23.532,24.759c-2.612,1.451-4.215,4.189-4.215,7.179v20.077
		c0,4.428,3.522,8.072,7.97,8.211c0,0,2.818,0.073,6.062,0.226c3.158,0.134,7.059,0.396,7.909,0.547l0.036,0.011
		c4.519,0.645,8.905,1.082,13.254,2.851c4.313,1.792,8.651,4.64,13.134,11.255l6.828-4.566l-7.217,3.923l38.548,71.059
		c2.053,3.79,6.657,5.345,10.594,3.571l49.142-22.11l2.442-1.701l13.473-13.576l-0.023,0.023c3.013-2.994,6.912-4.475,10.873-4.475
		c3.972,0,7.848,1.48,10.836,4.464l0.013,0.011L641.004,490.561z"/>
	<path clip-path="url(#SVGID_2_)" fill="#939598" d="M387.157,352.496c0.206,4.75-3.536,8.819-8.384,9.081
		c-4.835,0.272-8.953-3.433-9.232-8.261c-0.243-4.714,3.523-8.809,8.382-9.081C382.759,343.986,386.938,347.702,387.157,352.496"/>
	<path clip-path="url(#SVGID_2_)" fill="#939598" d="M372.25,407.809l18.211-14.372c1.907-1.499,2.235-4.287,0.729-6.202
		c-1.518-1.918-4.3-2.24-6.22-0.734l-18.187,14.366c-1.919,1.519-2.248,4.294-0.729,6.207
		C367.548,408.987,370.343,409.328,372.25,407.809"/>
	<path clip-path="url(#SVGID_2_)" fill="#939598" d="M542.369,739.015c-40.966,0-75.59-20.599-75.59-45.006V602.42h5.37
		c4.531,0,8.212-3.67,8.212-8.206v-6.481c0.025-38.397,26.874-68.823,61.096-69.272c34.028,0.449,60.854,30.875,60.877,69.272v6.481
		c0,4.536,3.681,8.206,8.225,8.206h7.375v91.589C617.935,718.416,583.335,739.015,542.369,739.015"/>
	<path clip-path="url(#SVGID_2_)" fill="#939598" d="M541.361,510.26c40.638,0.509,69.151,36.392,69.187,77.478v6.482h15.611v99.795
		c0,29.4-37.552,53.224-83.79,53.224c-46.3,0-83.802-23.823-83.802-53.224V594.22h13.582v-6.482
		C472.162,546.651,500.662,510.769,541.361,510.26 M541.361,526.685c-33.044,0.547-52.774,31.435-52.787,61.053v6.482
		c0,8.096-5.855,14.826-13.582,16.176v83.619c0,17.403,27.675,36.8,67.377,36.8c39.69,0,67.365-19.396,67.365-36.8v-83.401
		c-8.687-0.419-15.599-7.611-15.599-16.394v-6.482C594.111,558.119,574.369,527.231,541.361,526.685"/>
	<path clip-path="url(#SVGID_2_)" fill="#FFFFFF" d="M490.773,602.608h101.113v-14.865c0.037-17.614-6.171-33.451-15.732-44.513
		c-9.585-11.073-21.844-17.153-34.794-17.153c-12.951,0-25.245,6.08-34.867,17.153c-9.513,11.062-15.733,26.898-15.721,44.513
		V602.608z"/>
	<path clip-path="url(#SVGID_2_)" fill="#939598" d="M490.773,602.608v8.212h109.314v-23.064v-0.176
		c0-19.492-6.839-37.085-17.712-49.725l-0.012-0.013c-10.837-12.55-25.416-20.003-41.002-19.979
		c-15.575-0.023-30.202,7.417-41.063,19.979l-0.012,0.013l-0.012,0.012c-10.862,12.653-17.701,30.281-17.713,49.811v0.103v-0.012
		v14.84v8.212h8.213V602.608h8.2v-14.865v-0.023v-0.031v-0.011c-0.012-15.636,5.577-29.632,13.752-39.101l-0.012,0.018l-0.012,0.024
		c8.37-9.592,18.344-14.311,28.659-14.336c10.314,0.025,20.228,4.731,28.598,14.323l-0.012-0.012
		c8.164,9.428,13.74,23.374,13.728,38.985v0.14v6.676h-92.901V602.608h8.2H490.773z"/>
	<path clip-path="url(#SVGID_2_)" fill="#FFFFFF" d="M541.858,529.818l52.361-25.688l13.473-13.569
		c9.196-9.186,24.151-9.186,33.312,0c9.246,9.228,9.246,24.182,0,33.323l-16.473,16.535c-1.992,1.968-4.398,3.681-6.949,4.805
		l-73.075,33.001c-15.174,6.72-32.68,1.247-40.104-14.431"/>
	<path clip-path="url(#SVGID_2_)" fill="#939598" d="M545.479,537.193l52.361-25.688l2.199-1.593l13.473-13.575l-0.023,0.043
		c3.013-3.001,6.9-4.483,10.873-4.496c3.972,0.013,7.848,1.482,10.836,4.482h0.013c3.037,3.031,4.518,6.938,4.518,10.899
		c0,3.94-1.481,7.799-4.495,10.781l-0.037,0.036l-16.485,16.535l5.806,5.801l-5.746-5.861c-1.373,1.365-3.049,2.525-4.459,3.134
		l-0.121,0.036l-73.063,33.02l0.061-0.023c-3.255,1.428-6.584,2.114-9.792,2.114c-8.2-0.092-15.526-4.168-19.583-12.557
		c-1.944-4.106-6.828-5.843-10.935-3.904c-4.094,1.943-5.855,6.846-3.9,10.933c6.621,14.122,20.361,22.019,34.417,21.947
		c5.528,0,11.128-1.173,16.438-3.523l0.062-0.023l73.062-33.015l-3.377-7.478l3.268,7.525c3.693-1.604,6.803-3.906,9.427-6.469
		l0.073-0.061l16.473-16.534l-0.036,0.047c6.22-6.152,9.366-14.353,9.354-22.461c0.013-8.13-3.122-16.322-9.33-22.519v0.013
		c-6.171-6.186-14.347-9.306-22.45-9.295c-8.104-0.011-16.279,3.099-22.464,9.282l-0.036,0.023l-12.489,12.6l-51.122,25.081
		c-4.082,1.991-5.759,6.919-3.754,10.988C536.477,537.503,541.409,539.197,545.479,537.193z"/>
	<path clip-path="url(#SVGID_2_)" fill="#FFFFFF" d="M270.54,851.086l9.222-149.807l-0.062-1.828l0.062-0.012
		c0-28.502-19.572-98.089-19.572-116.032v-51.524l2.37-83.551c-10.594-15.885-23.812-16.433-32.049-17.703
		c-3.402-0.558-14.979-0.844-14.979-0.844v-14.493c26.776-12.891,46.372-43.444,47.538-74.483
		c1.567-41.464-30.202-76.391-70.9-77.971c-40.759-1.482-75.042,30.888-76.585,72.484c-1.276,33.355,18.782,67.778,47.818,80.85
		l-1.215,11.161h0.231l-0.231,2.452c0,0-11.578,0.286-15.003,0.844c-8.262,1.271-21.443,1.818-32.049,17.703l18.394,56.005
		l-0.474,98.083c0,16.285-8.517,68.161-6.913,100.567l0.073,0.011l-0.486,2.861l1.542,141.51l9.464,172.857
		c0,0-31.174,5.82-31.174,24.583c0,13.904,10.193,18.473,18.977,18.473l33.677-0.584c23.86-4.566,19.959-31.062,19.875-34.599
		l6.269-179.972l11.809-132.093l2.15-0.024l13.46,132.749l31.356,176.502c-9.415,2.728-18.843,11.373-18.843,25.191
		c0,7.034,2.637,12.78,19.244,12.78l19.171-0.224c6.754-0.037,16.68-0.037,20.847-5.353c3.013-3.765,4.241-13.771,4.094-20.478
		L270.54,851.086z"/>
	<path clip-path="url(#SVGID_2_)" fill="#939598" d="M270.54,851.086l8.201,0.498l9.197-149.794l0.025-0.783l-0.073-1.829
		l-8.189,0.273l2.345,7.88l0.061-0.031c3.474-1.045,5.868-4.239,5.868-7.86c-0.073-15.871-5.079-40.292-9.975-63.672
		c-2.441-11.626-4.883-22.876-6.694-32.231c-1.81-9.27-2.94-16.978-2.904-20.129v-51.414l2.357-83.426
		c0.048-1.713-0.414-3.371-1.373-4.786c-6.11-9.246-13.668-14.633-20.666-17.402c-6.973-2.79-13.29-3.274-16.959-3.869l0.073,0.011
		c-2.685-0.412-6.244-0.559-9.743-0.724c-3.402-0.151-6.33-0.212-6.366-0.212l-0.194,8.2h8.212v-14.493h-8.212l3.56,7.388
		c29.85-14.53,50.758-47.309,52.179-81.557l0.073-3.249c0-44.458-34.563-81.494-78.87-83.249h-0.012l-2.989-0.048
		c-44.087,0.011-80.437,35.449-82.101,80.449v-0.013l-0.061,3.322c0.012,17.865,5.382,35.529,14.578,50.594
		c9.209,15.041,22.293,27.577,38.146,34.722l3.366-7.479l-8.153-0.891l-1.226,11.169c-0.256,2.327,0.486,4.63,2.053,6.366
		c1.567,1.756,3.754,2.74,6.111,2.74h0.231v-8.224l-8.164-0.772l-0.243,2.441l8.176,0.783l-0.194-8.2
		c-0.037,0-2.965,0.061-6.378,0.212c-3.499,0.165-7.059,0.312-9.755,0.724l0.085-0.011c-3.706,0.595-10.011,1.079-16.984,3.88
		c-6.998,2.77-14.542,8.146-20.653,17.392c-1.41,2.09-1.75,4.713-0.972,7.113l17.981,54.736l-0.475,96.753v0.036
		c0.024,6.377-1.713,21.484-3.511,38.511c-1.773,17.13-3.584,36.538-3.597,53.285c0,3.159,0.062,6.232,0.22,9.178
		c0.181,3.772,2.891,6.906,6.584,7.653l0.061,0.013l1.616-8.062l-8.092-1.396l-0.498,2.868l-0.109,1.476l1.542,141.51l0.013,0.363
		l9.464,172.858l8.2-0.45l-1.506-8.072c-0.413,0.097-8.71,1.604-17.676,5.947c-4.495,2.198-9.209,5.119-13.17,9.402
		c-3.936,4.203-7.07,10.266-7.033,17.306c-0.11,8.931,3.669,16.571,9.33,20.896c5.6,4.367,12.1,5.776,17.859,5.79h0.157l33.665-0.59
		l1.396-0.146c11.202-2.004,18.94-8.924,22.536-16.299c3.718-7.349,4.265-14.753,4.289-20.026c0-1.779-0.073-3.322-0.146-4.507
		l-0.11-1.476l-0.023-0.438l-0.012-0.109l-8.201,0.194l8.201,0.285l6.256-179.746l11.809-131.881l-8.188-0.723l0.109,8.213
		l2.126-0.025l-0.085-8.212l-8.176,0.82l13.46,132.767l0.085,0.596l31.379,176.504l8.067-1.436l-2.271-7.884
		c-6.22,1.806-12.283,5.46-16.984,11.062c-4.688,5.558-7.823,13.224-7.799,22.014c0.012,2.266,0.182,4.805,1.094,7.556
		c1.239,4.145,4.798,8.371,9.44,10.448c4.628,2.164,10.011,2.958,16.922,2.989h0.098l19.17-0.226h-0.048
		c3.365-0.023,7.945,0.014,12.756-0.807c4.702-0.875,10.29-2.479,14.518-7.689l-0.061,0.061c3.013-3.991,3.887-7.923,4.787-12.144
		c0.777-4.192,1.117-8.522,1.117-12.361l-0.012-1.281l-0.025-0.577L278.717,850.34L270.54,851.086l8.201,0.498L270.54,851.086
		l-8.176,0.747l17.106,186.096l8.176-0.749l-8.212,0.178l0.012,0.923c0.013,2.806-0.279,6.377-0.838,9.33
		c-0.279,1.464-0.619,2.782-0.947,3.704l-0.425,1.046l-0.121,0.212l0.291,0.184l-0.267-0.207l-0.024,0.023l0.291,0.184l-0.267-0.207
		l-0.037,0.049c0.013,0.108-1.42,1.153-4.41,1.628c-2.903,0.521-6.657,0.571-10.022,0.571h-0.048l-19.171,0.225l0.084,8.212v-8.212
		c-7.459,0.061-10.338-1.495-10.533-1.805l-0.243-0.383c-0.109-0.314-0.255-1.135-0.255-2.381c0.037-5.023,1.604-8.594,3.973-11.492
		c2.381-2.861,5.734-4.891,8.941-5.808c4.021-1.172,6.537-5.198,5.808-9.33l-31.319-176.192l-13.437-132.453
		c-0.414-4.246-3.985-7.43-8.262-7.38l-2.138,0.023c-4.204,0.055-7.702,3.288-8.067,7.478l-11.82,132.106l-0.036,0.45
		l-6.257,179.958v0.487l0.157,2.659c0.061,0.985,0.11,2.169,0.11,3.475c0.036,3.906-0.584,8.918-2.492,12.55
		c-2.004,3.609-4.361,6.222-10.994,7.642l1.543,8.072l-0.146-8.211l-33.664,0.582l0.134,8.213v-8.213
		c-3.013,0.025-5.989-0.856-7.689-2.248c-1.641-1.444-2.953-3.036-3.074-8.012c0.036-2.338,0.802-4.046,2.709-6.194
		c2.807-3.172,8.382-6.125,13.219-7.85c2.417-0.885,4.628-1.519,6.195-1.92l1.822-0.43l0.45-0.104l0.073-0.011
		c4.033-0.76,6.912-4.417,6.693-8.523l-9.464-172.682l-1.542-140.574l0.376-2.119c0.765-4.392-2.114-8.57-6.476-9.452l-0.061-0.012
		l-1.628,8.049l8.212-0.4c-0.133-2.637-0.194-5.437-0.194-8.371c0-15.575,1.737-34.625,3.511-51.59
		c1.762-17.069,3.547-31.696,3.596-40.206v0.048l0.461-98.089l-0.388-2.6l-18.405-56.012l-7.8,2.564l6.828,4.554
		c4.494-6.657,8.832-9.493,13.145-11.273c4.337-1.761,8.76-2.186,13.327-2.872l0.061-0.013c0.741-0.134,4.666-0.406,7.824-0.522
		c3.244-0.133,6.062-0.212,6.062-0.212c4.167-0.099,7.581-3.28,7.982-7.425l0.232-2.452c0.23-2.303-0.535-4.587-2.103-6.293
		c-1.555-1.719-3.753-2.698-6.074-2.698h-0.231v8.208l8.164,0.898l1.216-11.171c0.388-3.524-1.556-6.92-4.787-8.377
		c-12.319-5.533-23.18-15.709-30.871-28.324c-7.714-12.594-12.186-27.493-12.173-42.023l0.049-2.702
		c1.348-36.362,30.651-64.65,65.688-64.639l2.394,0.049h-0.024c35.208,1.318,63.064,30.968,63.064,66.83l-0.048,2.636
		c-0.899,27.834-19.17,56.159-42.885,67.378c-2.867,1.367-4.653,4.233-4.653,7.404v14.493c0,4.465,3.559,8.099,8.005,8.208
		c0,0,2.843,0.079,6.074,0.212c3.147,0.116,7.071,0.389,7.776,0.522l0.072,0.013c4.567,0.687,8.99,1.111,13.327,2.872
		c4.312,1.78,8.662,4.629,13.145,11.273l6.841-4.554l-8.201-0.238l-2.381,83.553v0.236v51.524c0.037,5.813,1.36,13.54,3.207,23.252
		c2.794,14.446,6.913,32.655,10.326,49.877c3.426,17.129,6.075,33.501,6.038,42.903h8.213l-2.37-7.859l-0.061,0.011
		c-3.559,1.069-5.965,4.428-5.844,8.146l0.049,1.436l-9.196,149.404l0.023,1.257L270.54,851.086z"/>
	<path clip-path="url(#SVGID_2_)" fill="#FFFFFF" d="M225.396,371.053c5.31-1.629,6.378-5.473,3.901-11.541l-5.747-13.922"/>
	<path clip-path="url(#SVGID_2_)" fill="#939598" d="M226.696,375.279c2.308-0.71,4.434-1.863,6.001-3.741
		c1.592-1.87,2.321-4.331,2.296-6.634c-0.012-2.374-0.631-4.664-1.604-7.063l-0.012-0.013l-5.746-13.923
		c-0.936-2.264-3.511-3.333-5.771-2.397c-2.248,0.928-3.34,3.517-2.405,5.77l5.746,13.923v-0.013
		c0.716,1.713,0.96,3.007,0.948,3.717l-0.243,0.973c-0.146,0.17-0.583,0.571-1.811,0.953c-2.332,0.712-3.645,3.19-2.916,5.528
		C221.885,374.685,224.363,376.003,226.696,375.279"/>
	<path clip-path="url(#SVGID_2_)" fill="#FFFFFF" d="M194.198,385.45c0,0,9.451,4.142,24.723-1.829"/>
	<path clip-path="url(#SVGID_2_)" fill="#939598" d="M192.424,389.501c0.438,0.188,4.228,1.768,10.642,1.779
		c4.604,0,10.558-0.831,17.458-3.535c2.284-0.894,3.414-3.456,2.515-5.734c-0.887-2.267-3.45-3.396-5.722-2.503
		c-5.879,2.29-10.691,2.929-14.25,2.929c-2.466,0-4.349-0.316-5.552-0.589l-1.312-0.372l-0.242-0.084l-0.243,0.582l0.267-0.571
		l-0.023-0.011l-0.243,0.582l0.267-0.571c-2.248-0.982-4.859,0.037-5.831,2.273C189.169,385.904,190.188,388.516,192.424,389.501"/>
	<path clip-path="url(#SVGID_2_)" fill="#939598" d="M248.32,336.373c0.231,4.769-3.498,8.798-8.346,9.047
		c-4.896,0.296-9.026-3.409-9.258-8.237c-0.243-4.776,3.487-8.809,8.371-9.058C243.911,327.863,248.114,331.576,248.32,336.373"/>
	<path clip-path="url(#SVGID_2_)" fill="#939598" d="M197.831,340.438c0.243,4.769-3.523,8.807-8.334,9.092
		c-4.909,0.226-9.015-3.442-9.27-8.242c-0.255-4.731,3.474-8.795,8.382-9.044C193.42,331.958,197.587,335.652,197.831,340.438"/>
	<path clip-path="url(#SVGID_2_)" fill="#FFFFFF" d="M248.807,572.497c10.763-1.11,19.097-9.919,19.838-20.689l6.196-94.974h-0.024
		c0.826-12.251-8.528-22.898-20.823-23.683c-6.439-0.45-12.477,1.968-16.838,6.123l-6.523-22.36
		c-3.427-11.802-15.88-18.581-27.712-15.149c-11.797,3.408-18.588,15.824-15.174,27.644l37.139,127.162
		c2.806,9.652,11.59,16.073,21.467,16.073L248.807,572.497z"/>
	<path clip-path="url(#SVGID_2_)" fill="#939598" d="M248.807,572.497l0.837,8.17c14.822-1.555,26.193-13.594,27.189-28.312v-0.013
		l6.208-94.972c0.146-2.247-0.668-4.501-2.211-6.141c-1.543-1.658-3.73-2.602-5.989-2.602h-0.024v8.206l8.2,0.548l0.072-2.047
		c-0.023-15.964-12.416-29.341-28.573-30.384h0.048l-2.077-0.073c-8.092,0.013-15.527,3.22-21.005,8.449l5.673,5.947l7.872-2.303
		l-6.512-22.359v0.012c-3.912-13.345-16.109-21.964-29.352-21.964c-2.818,0-5.709,0.394-8.528,1.214
		c-13.352,3.882-21.989,16.073-21.989,29.314c0,2.819,0.401,5.68,1.215,8.493l0.012,0.023l37.139,127.168l-0.013-0.013
		c3.828,13.187,15.891,22.019,29.352,21.995l0.511-0.011l2.454-0.152l0.328-0.025L248.807,572.497l-0.511-8.2l-2.466,0.165
		l0.522,8.182v-8.213c-6.293-0.013-11.796-4.04-13.57-10.15v-0.013l-37.151-127.16v0.011c-0.376-1.317-0.558-2.641-0.558-3.93
		c0-6.11,4.021-11.796,10.131-13.54c1.336-0.383,2.661-0.571,3.96-0.571c6.136,0,11.833,4.021,13.571,10.126l0.012,0.014
		l6.523,22.354c0.79,2.74,3.001,4.889,5.759,5.625c2.746,0.746,5.734-0.014,7.8-1.992c2.551-2.425,6.001-3.906,9.658-3.906
		l0.947,0.042h0.048c7.422,0.456,13.194,6.731,13.169,13.996l-0.025,0.954c-0.157,2.276,0.631,4.493,2.188,6.159
		c1.567,1.664,3.718,2.6,6.001,2.6h0.024v-8.214l-8.188-0.534l-6.208,94.974v-0.024c-0.461,6.828-5.771,12.398-12.489,13.071
		L248.807,572.497l-0.511-8.2L248.807,572.497z"/>
	<path clip-path="url(#SVGID_2_)" fill="#FFFFFF" d="M135.811,572.497c-10.763-1.11-19.11-9.919-19.827-20.689l-6.208-94.974h0.023
		c-0.849-12.251,8.518-22.898,20.812-23.683c6.427-0.45,12.501,1.968,16.839,6.123l6.523-22.36
		c3.462-11.802,15.891-18.581,27.711-15.149c11.808,3.408,18.587,15.824,15.186,27.644L159.708,556.57
		c-2.794,9.652-11.566,16.073-21.43,16.073L135.811,572.497z"/>
	<path clip-path="url(#SVGID_2_)" fill="#939598" d="M135.811,572.497l0.85-8.177c-6.706-0.655-12.039-6.243-12.488-13.06v0.013
		l-6.22-94.974l-8.177,0.534v8.214h0.023c2.272,0,4.436-0.936,5.99-2.6c1.555-1.683,2.357-3.894,2.199-6.173l-0.048-0.972
		c-0.012-7.233,5.771-13.521,13.193-13.965h0.049l0.947-0.042c3.657,0,7.132,1.481,9.646,3.906c2.078,1.992,5.018,2.738,7.812,1.992
		c2.781-0.736,4.945-2.861,5.759-5.625l6.499-22.354v0.013c1.786-6.131,7.483-10.152,13.595-10.152c1.312,0,2.624,0.188,3.96,0.571
		c6.123,1.744,10.133,7.43,10.145,13.54c0,1.289-0.195,2.612-0.571,3.93v-0.023l-37.15,127.173v0.013
		c-1.786,6.123-7.277,10.138-13.546,10.15v8.213l0.51-8.182l-2.466-0.165L135.811,572.497l0.85-8.177L135.811,572.497l-0.51,8.195
		l2.465,0.152l0.511,0.011c13.448,0.023,25.5-8.809,29.315-21.995l-0.012,0.013l37.163-127.168l0.012-0.023
		c0.813-2.826,1.203-5.688,1.203-8.493c0-13.241-8.625-25.433-21.977-29.314c-2.831-0.82-5.71-1.214-8.541-1.214
		c-13.23,0-25.415,8.619-29.352,21.939v0.013l-6.523,22.359l7.885,2.303l5.685-5.935c-5.479-5.242-12.938-8.449-21.005-8.462
		l-2.078,0.073h0.049c-16.146,1.043-28.55,14.407-28.574,30.353l0.073,2.096l8.199-0.565v-8.206h-0.023
		c-2.271,0-4.459,0.943-6.001,2.602c-1.543,1.64-2.345,3.894-2.199,6.141l6.22,94.972v0.013
		c0.984,14.719,12.367,26.758,27.165,28.312l0.34,0.025L135.811,572.497z"/>
	<path clip-path="url(#SVGID_2_)" fill="#939598" d="M229.271,441.583l11.65,39.708c1.275,4.354,5.832,6.839,10.193,5.575
		c4.35-1.281,6.84-5.837,5.564-10.191l-11.639-39.722c-1.287-4.344-5.843-6.84-10.192-5.557
		C230.499,432.659,227.996,437.227,229.271,441.583"/>
	<path clip-path="url(#SVGID_2_)" fill="#939598" d="M139.577,436.959l-11.65,39.708c-1.276,4.356,1.226,8.918,5.576,10.187
		c4.349,1.283,8.905-1.202,10.192-5.557l11.64-39.709c1.274-4.354-1.216-8.923-5.565-10.204
		C145.409,430.113,140.853,432.604,139.577,436.959"/>
	<line clip-path="url(#SVGID_2_)" fill="#FFFFFF" x1="126.894" y1="671.079" x2="133.102" y2="597.895"/>
	<path clip-path="url(#SVGID_2_)" fill="#939598" d="M135.069,671.771l6.209-73.184c0.388-4.52-2.977-8.486-7.483-8.874
		c-4.52-0.385-8.505,2.977-8.881,7.488l-6.196,73.179c-0.389,4.524,2.952,8.491,7.483,8.881
		C130.721,679.644,134.682,676.284,135.069,671.771"/>
	<path clip-path="url(#SVGID_2_)" fill="#9D9FA2" d="M3316.049,1244.961h-3.291h-17.154c-7.18-0.681-12.294-6.657-12.294-14.02
		c0-7.702,5.733-13.972,12.804-13.972h3.645l12.78-24.661l-11.03-45.619l-59.784,6.45l-9.063,84.774l-0.582,5.648h-5.686h-15.199
		c-7.033,0-12.78-6.291-12.78-14.02c0-6.657,4.277-12.232,9.976-13.643l-5.627-48.133l-65.893,66.234
		c-2.395,3.244-5.955,5.127-9.672,5.127c-7.046,0-12.781-6.293-12.781-14.02c0-3.109,0.949-6.074,2.709-8.54l45.378-62.966
		l-6.416-33.896l-17.651,3.36l-10.8,7.514l-4.034,2.83l-3.718-3.257l-18.15-15.871l-3.11-2.709l1.252-3.918l3.803-12.143v-10.601
		v-1.89l1.033-1.555l14.76-22.766l12.004-24.45l5.662-11.444l5.659,11.444l8.798,17.72l182.328-25.307l1.408-0.188l1.349,0.425
		l51,15.751c3.561,1.082,6.05,3.183,7.714,4.987c1.472,0.82,2.711,1.854,3.864,3.147c1.579,1.622,5.431,5.636,10.995,9.706
		c4.798,3.469,14.237,9.275,23.483,9.275c21.161-0.182,37.235-29.691,47.829-87.689c1.264-7.611,7.35-13.224,14.457-13.224
		l3.194,0.4c7.886,1.926,12.891,10.333,11.421,19.142c-16.037,94.39-50.442,114.204-76.49,114.204
		c-10.556-0.188-20.955-3.146-31.075-8.857l1.202,23.501l30.457,48.797l0.803,1.3l0.133,1.53l4.375,56.311l0.398,5.15l-4.98,1.434
		l-17.931,5.077c-0.899,0.317-2.235,0.561-3.595,0.561c-5.735,0-10.802-4.229-12.296-10.304c-1.761-7.191,1.907-14.662,8.384-17.007
		l0.268-0.05l-8.128-31.696l-45.862-28.927l-8.286,48.791l-0.218,1.396l-0.802,1.18l-29.036,41.475L3316.049,1244.961z"/>
	<path clip-path="url(#SVGID_2_)" fill="#FFFFFF" d="M3496.035,975.168l1.724,0.212c4.616,1.137,7.557,6.469,6.657,11.974
		c-13.825,81.208-42.277,108.925-70.27,108.925l-0.241-0.023c-15.235-0.249-28.259-7.431-37.395-14.35l-0.181,1.436l1.713,35.825
		l31.319,50.205l4.386,56.321l-17.92,5.066l-1.895,0.327c-2.77,0-5.334-2.138-6.16-5.515c-1.008-4.046,0.936-8.261,4.386-9.5
		l5.66-1.991l-10.168-39.716l-55.992-35.28l-9.841,58.061l-29.037,41.5h-17.166l0.074-0.073c-3.391-0.293-6.062-3.561-6.062-7.63
		c0-4.215,2.879-7.654,6.474-7.654h7.498l15.61-30.153l-12.854-53.333l-70.33,7.617l-9.633,89.841h-15.224
		c-3.547,0-6.438-3.475-6.438-7.702c0-4.229,2.891-7.68,6.438-7.68h4.265l-7.909-67.825l-75.284,75.688l-0.05-0.025
		c-1.153,1.81-2.951,3.086-5.005,3.086c-3.597,0-6.476-3.475-6.476-7.702c0-1.835,0.607-3.512,1.556-4.848l-0.157-0.121l47.1-65.045
		l-8.078-42.745l-25.136,4.763l-11.968,8.292l-18.138-15.866l4.105-13.049v-11.584l14.75-22.768l12.379-25.067l10.812,21.837
		l186.872-25.956c0,0,35.936,11.099,51.013,15.739c2.406,0.735,4.167,2.303,5.673,4.07l3.013,2.186
		c0.098,0,4.569,5.256,12.053,10.66c7.436,5.4,17.433,10.504,27.164,10.504h0.183c17.082-0.152,39.446-14.093,53.867-92.889
		C3488.562,978.442,3492.098,975.168,3496.035,975.168 M3496.035,962.545c-10.194,0-18.93,7.812-20.727,18.57
		c-9.67,52.889-24.432,82.198-41.537,82.355c-5.504,0-12.709-2.947-19.777-8.098c-5.274-3.808-8.748-7.488-9.901-8.698
		c-1.47-1.64-3.05-2.981-4.763-4.04c-2.964-2.933-6.184-4.926-9.817-6.031c-15.064-4.641-50.975-15.726-50.975-15.726l-2.674-0.846
		l-2.794,0.396l-177.846,24.693l-6.779-13.656l-11.335-22.906l-11.311,22.906l-12.062,24.406l-14.349,22.154l-2.028,3.133v3.736
		v9.642l-3.523,11.194l-2.466,7.879l6.209,5.424l18.136,15.871l7.412,6.477l8.091-5.612l9.756-6.756l10.095-1.907l4.714,24.979
		l-43.918,60.646c-2.405,3.705-3.778,7.934-3.778,12.367c0,11.213,8.566,20.325,19.099,20.325c5.564,0,10.837-2.662,14.432-7.205
		l56.384-56.698l3.571,30.493c-5.662,3.524-9.464,10.071-9.464,17.544c0,11.213,8.552,20.336,19.061,20.336h15.224h11.358
		l1.216-11.285l8.527-79.732l49.178-5.309l9.162,37.953l-9.928,19.134c-10.436,0.097-18.902,9.159-18.902,20.288
		c0,10.643,7.545,19.341,17.579,20.203l0.548,0.061l0.484,0.073h17.166h6.585l3.767-5.395l29.035-41.5l1.629-2.332l0.473-2.806
		l6.693-39.376l35.694,22.501l6.28,24.527c-6.354,4.823-9.5,13.425-7.41,21.735c2.175,8.868,9.755,15.089,18.406,15.089
		c1.907,0,3.777-0.293,5.588-0.889l17.664-4.968l9.961-2.818l-0.789-10.339l-4.398-56.311l-0.254-3.084l-1.627-2.625l-29.571-47.416
		l-0.535-11.219c7.823,3.072,15.757,4.689,23.727,4.822h0.05c28.925,0,66.332-20.75,83.145-119.41
		c1.994-12.096-5.102-23.654-16.133-26.351C3499.205,962.729,3497.625,962.545,3496.035,962.545"/>
	<path clip-path="url(#SVGID_2_)" fill="#DCDDDE" d="M939.585,377.412l-0.146-0.181l-0.535-0.772l-10.885-13.485l-0.972-1.197v0.013
		l-37.163-46.056l-0.997-1.032l-0.924-2.028l-34.259-70.761c0,0-12.83,8.023-16.522,11.346c-4.555,4.144-13.886,18.85-10.533,23.915
		l41.719,53.054l1.348,2.005l45.12,55.957l-12.67,10.212c-4.957,4.02-5.735,11.334-1.774,16.346
		c3.96,4.992,11.237,5.788,16.206,1.779c0,0,6.318-4.915,20.495-16.369C951.283,388.662,939.585,377.412,939.585,377.412"/>
	<path clip-path="url(#SVGID_2_)" fill="#DCDDDE" d="M939.585,377.412l-0.146-0.181l-0.535-0.772l-10.885-13.485l-0.972-1.197v0.013
		l-37.163-46.056l-0.997-1.032l-0.924-2.028l-34.259-70.761c0,0-12.83,8.023-16.522,11.346c-4.555,4.144-13.886,18.85-10.533,23.915
		l41.719,53.054l1.348,2.005l45.12,55.957l-12.67,10.212c-4.957,4.02-5.735,11.334-1.774,16.346
		c3.96,4.992,11.237,5.788,16.206,1.779c0,0,6.318-4.915,20.495-16.369C951.283,388.662,939.585,377.412,939.585,377.412"/>
	<path clip-path="url(#SVGID_2_)" fill="#DCDDDE" d="M839.321,163.916c-4.01-3.462-9.61-3.37-12.526,0.171l-35.085,42.745
		l-0.766,1.173l-32.437,39.507c-2.904,3.511-2.041,9.196,1.969,12.604c4.009,3.456,9.609,3.408,12.525-0.128l35.085-42.69
		l0.778-1.244l32.449-39.483C844.217,173.047,843.318,167.36,839.321,163.916"/>
	<path clip-path="url(#SVGID_2_)" fill="#DCDDDE" d="M839.321,163.916c-4.01-3.462-9.61-3.37-12.526,0.171l-35.085,42.745
		l-0.766,1.173l-32.437,39.507c-2.904,3.511-2.041,9.196,1.969,12.604c4.009,3.456,9.609,3.408,12.525-0.128l35.085-42.69
		l0.778-1.244l32.449-39.483C844.217,173.047,843.318,167.36,839.321,163.916"/>
	<path clip-path="url(#SVGID_2_)" fill="#DCDDDE" d="M852.83,80.109c-24.54-8.833-39.763,12.209-41.148,23.865
		c-0.438,3.693-0.62,9.762-0.62,9.762l-9.488,9.281l0.413,0.098l-0.097,0.115l7.691,1.792c4.798,15.149,17.979,19.602,20.713,20.415
		c1.154,0.299,2.187,0.523,3.255,0.705v12.367c-13.156,6.591-13.667,27.056-13.667,35.602v68.586l-0.049,1.258l-29.011,57.896
		l-1.288,2.156l-31.441,64.724l-14.591-7.315c-5.698-2.787-12.623-0.497-15.454,5.248c-2.806,5.765-0.449,12.715,5.224,15.576
		c0,0,7.083,3.723,23.399,11.845c16.291,8.15,21.491-7.278,21.491-7.278l0.146-0.322l0.413-0.697l6.815-13.995l1.47-2.972
		l-0.013-0.011l25.877-53.334l0.534-1.329l1.434-1.755l45.121-51.556l-0.037-0.023c6.257-7.338,4.92-18.114,4.92-18.114v-68.835
		c0,0,0.353-26.046-12.549-34.678v-13.212c14.579-4.282,19.863-18.113,21.163-21.795C876.764,114.848,878.999,89.391,852.83,80.109"
		/>
	<path clip-path="url(#SVGID_2_)" fill="#DCDDDE" d="M842.953,176.29l32.414,39.52l0.789,1.197l35.11,42.722
		c2.879,3.529,8.492,3.576,12.489,0.145c4.009-3.433,4.884-9.104,1.956-12.64l-32.438-39.521l-0.753-1.171l-35.11-42.746"/>
	<path clip-path="url(#SVGID_2_)" fill="#DCDDDE" d="M842.953,176.29l32.414,39.52l0.789,1.197l35.11,42.722
		c2.879,3.529,8.492,3.576,12.489,0.145c4.009-3.433,4.884-9.104,1.956-12.64l-32.438-39.521l-0.753-1.171l-35.11-42.746"/>
	<line clip-path="url(#SVGID_2_)" fill="#DCDDDE" x1="815.303" y1="134.602" x2="824.463" y2="131.868"/>
	<path clip-path="url(#SVGID_2_)" fill="#DCDDDE" d="M825.909,111.312c-0.182,2.198-2.163,3.767-4.325,3.596
		c-2.248-0.176-3.888-2.132-3.645-4.355c0.17-2.205,2.139-3.796,4.325-3.571C824.487,107.183,826.139,109.095,825.909,111.312"/>
	<path clip-path="url(#SVGID_2_)" fill="#DCDDDE" d="M859.415,377.412l-0.158-0.181l-0.534-0.772l-10.873-13.485l-0.972-1.197v0.013
		l-37.126-46.056l-1.008-1.032l-0.972-2.028l-34.235-70.761c0,0-12.842,8.023-16.523,11.346
		c-4.543,4.144-13.886,18.85-10.532,23.915l41.73,53.054l1.349,2.005l45.146,55.957l-12.72,10.212
		c-4.933,4.02-5.747,11.334-1.75,16.346c3.961,4.992,11.237,5.788,16.182,1.779c0,0,6.354-4.915,20.531-16.369
		C871.126,388.662,859.415,377.412,859.415,377.412"/>
	<path clip-path="url(#SVGID_2_)" fill="#DCDDDE" d="M859.415,377.412l-0.158-0.181l-0.534-0.772l-10.873-13.485l-0.972-1.197v0.013
		l-37.126-46.056l-1.008-1.032l-0.972-2.028l-34.235-70.761c0,0-12.842,8.023-16.523,11.346
		c-4.543,4.144-13.886,18.85-10.532,23.915l41.73,53.054l1.349,2.005l45.146,55.957l-12.72,10.212
		c-4.933,4.02-5.747,11.334-1.75,16.346c3.961,4.992,11.237,5.788,16.182,1.779c0,0,6.354-4.915,20.531-16.369
		C871.126,388.662,859.415,377.412,859.415,377.412"/>
	<path clip-path="url(#SVGID_2_)" fill="#DCDDDE" d="M759.139,163.916c-3.984-3.462-9.597-3.37-12.476,0.171l-35.085,42.745
		l-0.765,1.173l-32.462,39.507c-2.915,3.511-2.004,9.196,1.98,12.604c3.985,3.456,9.598,3.408,12.501-0.128l35.073-42.69
		l0.802-1.244l32.425-39.483C764.035,173.047,763.136,167.36,759.139,163.916"/>
	<path clip-path="url(#SVGID_2_)" fill="#DCDDDE" d="M759.139,163.916c-3.984-3.462-9.597-3.37-12.476,0.171l-35.085,42.745
		l-0.765,1.173l-32.462,39.507c-2.915,3.511-2.004,9.196,1.98,12.604c3.985,3.456,9.598,3.408,12.501-0.128l35.073-42.69
		l0.802-1.244l32.425-39.483C764.035,173.047,763.136,167.36,759.139,163.916"/>
	<path clip-path="url(#SVGID_2_)" fill="#DCDDDE" d="M772.697,80.109c-24.59-8.833-39.799,12.209-41.185,23.865
		c-0.438,3.693-0.62,9.762-0.62,9.762l-9.5,9.281l0.425,0.098l-0.097,0.115l7.677,1.792c4.836,15.149,17.98,19.602,20.75,20.415
		l3.233,0.705v12.367c-13.17,6.591-13.692,27.056-13.692,35.602v68.586l-0.025,1.258l-28.999,57.896l-1.312,2.156l-31.416,64.724
		l-14.591-7.315c-5.673-2.787-12.635-0.497-15.453,5.248c-2.831,5.765-0.487,12.715,5.235,15.576c0,0,7.083,3.723,23.375,11.845
		c16.303,8.15,21.49-7.278,21.49-7.278l0.158-0.322l0.438-0.697l6.768-13.995l1.493-2.972l-0.023-0.011l25.876-53.334l0.535-1.329
		l1.421-1.755l45.133-51.556l-0.012-0.023c6.22-7.338,4.907-18.114,4.907-18.114v-68.835c0,0,0.341-26.046-12.573-34.678v-13.212
		c14.59-4.282,19.9-18.113,21.188-21.795C796.594,114.848,798.854,89.391,772.697,80.109"/>
	<path clip-path="url(#SVGID_2_)" fill="#DCDDDE" d="M762.76,176.29l32.461,39.52l0.79,1.197l35.061,42.722
		c2.929,3.529,8.529,3.576,12.514,0.145c4.021-3.433,4.908-9.104,1.979-12.64l-32.461-39.521l-0.741-1.171l-35.109-42.746"/>
	<path clip-path="url(#SVGID_2_)" fill="#DCDDDE" d="M762.76,176.29l32.461,39.52l0.79,1.197l35.061,42.722
		c2.929,3.529,8.529,3.576,12.514,0.145c4.021-3.433,4.908-9.104,1.979-12.64l-32.461-39.521l-0.741-1.171l-35.109-42.746"/>
	<line clip-path="url(#SVGID_2_)" fill="#DCDDDE" x1="735.133" y1="134.602" x2="744.306" y2="131.868"/>
	<path clip-path="url(#SVGID_2_)" fill="#DCDDDE" d="M745.763,111.312c-0.23,2.198-2.162,3.767-4.349,3.596
		c-2.235-0.176-3.85-2.132-3.681-4.355c0.231-2.205,2.175-3.796,4.399-3.571C744.306,107.183,745.946,109.095,745.763,111.312"/>
	<path clip-path="url(#SVGID_2_)" fill="#DCDDDE" d="M2279.032,508.995l-0.181-0.249l-0.682-0.99l-14.179-17.555l-1.237-1.579v0.036
		l-48.39-59.947l-1.287-1.349l-1.216-2.649l-44.573-92.068c0,0-16.705,10.423-21.515,14.754
		c-5.905,5.401-18.078,24.504-13.716,31.114l54.304,69.064l1.761,2.631l58.74,72.807l-16.509,13.291
		c-6.453,5.236-7.473,14.742-2.285,21.261c5.151,6.519,14.614,7.526,21.03,2.326c0,0,8.261-6.396,26.703-21.339
		C2294.291,523.641,2279.032,508.995,2279.032,508.995"/>
	<path clip-path="url(#SVGID_2_)" fill="#DCDDDE" d="M2279.032,508.995l-0.181-0.249l-0.682-0.99l-14.179-17.555l-1.237-1.579v0.036
		l-48.39-59.947l-1.287-1.349l-1.216-2.649l-44.573-92.068c0,0-16.705,10.423-21.515,14.754
		c-5.905,5.401-18.078,24.504-13.716,31.114l54.304,69.064l1.761,2.631l58.74,72.807l-16.509,13.291
		c-6.453,5.236-7.473,14.742-2.285,21.261c5.151,6.519,14.614,7.526,21.03,2.326c0,0,8.261-6.396,26.703-21.339
		C2294.291,523.641,2279.032,508.995,2279.032,508.995"/>
	<path clip-path="url(#SVGID_2_)" fill="#DCDDDE" d="M2148.566,231.111c-5.199-4.476-12.5-4.379-16.291,0.248l-45.643,55.599
		l-1.032,1.532l-42.217,51.425c-3.777,4.593-2.638,11.979,2.563,16.406c5.211,4.483,12.513,4.417,16.279-0.145l45.69-55.587
		l1.009-1.616l42.229-51.389C2154.933,243.018,2153.767,235.619,2148.566,231.111"/>
	<path clip-path="url(#SVGID_2_)" fill="#DCDDDE" d="M2148.566,231.111c-5.199-4.476-12.5-4.379-16.291,0.248l-45.643,55.599
		l-1.032,1.532l-42.217,51.425c-3.777,4.593-2.638,11.979,2.563,16.406c5.211,4.483,12.513,4.417,16.279-0.145l45.69-55.587
		l1.009-1.616l42.229-51.389C2154.933,243.018,2153.767,235.619,2148.566,231.111"/>
	<path clip-path="url(#SVGID_2_)" fill="#DCDDDE" d="M2166.159,122.059c-31.964-11.499-51.766,15.884-53.576,31.033
		c-0.561,4.829-0.814,12.727-0.814,12.727l-12.343,12.07l0.547,0.139l-0.109,0.121l9.998,2.352
		c6.27,19.729,23.386,25.543,26.946,26.588c1.493,0.383,2.855,0.655,4.252,0.892v16.097c-17.143,8.572-17.823,35.232-17.823,46.354
		v89.244l-0.048,1.646l-37.746,75.366l-1.677,2.77l-40.929,84.245l-18.966-9.5c-7.409-3.632-16.436-0.65-20.116,6.853
		c-3.646,7.452-0.657,16.546,6.778,20.24c0,0,9.245,4.841,30.457,15.416c21.224,10.612,27.979-9.458,27.979-9.458l0.193-0.438
		l0.548-0.917l8.882-18.212l1.895-3.856l-0.024-0.023l33.675-69.396l0.694-1.742l1.857-2.277l58.764-67.086l-0.073-0.055
		c8.127-9.566,6.392-23.575,6.392-23.575v-89.579c0,0,0.473-33.899-16.329-45.119v-17.21c18.965-5.569,25.89-23.598,27.566-28.36
		C2197.284,167.252,2200.236,134.146,2166.159,122.059"/>
	<path clip-path="url(#SVGID_2_)" fill="#DCDDDE" d="M2153.269,247.239l42.229,51.401l0.985,1.59l45.689,55.588
		c3.805,4.574,11.069,4.666,16.28,0.199c5.2-4.457,6.378-11.855,2.563-16.461l-42.229-51.456l-0.982-1.499l-45.705-55.611"/>
	<path clip-path="url(#SVGID_2_)" fill="#DCDDDE" d="M2153.269,247.239l42.229,51.401l0.985,1.59l45.689,55.588
		c3.805,4.574,11.069,4.666,16.28,0.199c5.2-4.457,6.378-11.855,2.563-16.461l-42.229-51.456l-0.982-1.499l-45.705-55.611"/>
	<line clip-path="url(#SVGID_2_)" fill="#DCDDDE" x1="2117.297" y1="192.97" x2="2129.226" y2="189.388"/>
	<path clip-path="url(#SVGID_2_)" fill="#DCDDDE" d="M2131.122,162.653c-0.268,2.861-2.807,4.926-5.649,4.653
		c-2.915-0.219-5.029-2.734-4.775-5.607c0.28-2.885,2.807-4.963,5.675-4.665C2129.251,157.259,2131.389,159.768,2131.122,162.653"/>
	<path clip-path="url(#SVGID_2_)" fill="#A8AAAD" d="M3235.479,456.666h-68.446c-6.973,0-12.634,5.659-12.634,12.639
		c0,6.962,5.661,12.623,12.634,12.623h68.446c6.974,0,12.623-5.661,12.623-12.623
		C3248.103,462.325,3242.453,456.666,3235.479,456.666"/>
	<path clip-path="url(#SVGID_2_)" fill="#FFFFFF" d="M3182.135,403.271l-130.965,76.081c-4.956,2.751-15.441,11.062-15.441,22.634
		l-0.157,6.925c0,5.515,5.979,13.302,8.493,16.697l79.27,85.838c0,0-13.911,19.953-7.252,35.603l38.936-38.05l-63.636-101.825
		l106.971-34.686"/>
	<path clip-path="url(#SVGID_2_)" fill="#A8AAAD" d="M3178.003,396.171l-130.951,76.087l4.118,7.089l-3.984-7.173
		c-3.341,1.876-7.8,5.072-11.905,9.911c-4.021,4.8-7.752,11.543-7.763,19.906h8.211l-8.211-0.175l-0.146,6.919v0.17
		c0.146,5.673,2.368,9.67,4.422,13.326c2.127,3.565,4.446,6.615,5.662,8.273l0.57,0.681l79.283,85.825l6.025-5.57l-6.73-4.689
		c-0.181,0.272-2.695,3.869-5.26,9.403c-2.526,5.546-5.235,13.023-5.272,21.521c0,4.07,0.668,8.384,2.455,12.604
		c1.056,2.497,3.291,4.302,5.952,4.823c2.66,0.534,5.393-0.272,7.337-2.175l38.938-38.056c2.77-2.697,3.28-6.942,1.227-10.223
		l-58.059-92.909l96.959-31.434l-5.066-15.623l-106.969,34.678c-2.394,0.772-4.325,2.63-5.188,5.006
		c-0.851,2.363-0.571,5.011,0.766,7.15l60.136,96.229l-34.211,33.439l5.734,5.868l7.557-3.207c-0.791-1.841-1.155-3.882-1.155-6.172
		c-0.035-4.737,1.786-10.375,3.791-14.639c0.984-2.132,1.968-3.938,2.698-5.15l0.85-1.386l0.219-0.322l0.024-0.037
		c2.211-3.17,1.931-7.428-0.694-10.277l-79.281-85.825l-6.025,5.577l6.598-4.878c-1.302-1.755-3.209-4.307-4.716-6.858
		c-0.753-1.25-1.373-2.495-1.737-3.456l-0.352-1.153l-0.061-0.364h-8.213l8.213,0.187l0.133-6.93l0.012-0.171
		c-0.023-3.212,1.483-6.408,3.938-9.36c2.393-2.885,5.66-5.225,7.276-6.092l0.146-0.086l130.951-76.087L3178.003,396.171z"/>
	<path clip-path="url(#SVGID_2_)" fill="#A8AAAD" d="M3174.662,679.984h-10.107c0,65.646,53.175,118.808,118.791,118.808
		c65.639,0,118.815-53.162,118.826-118.808c-0.011-65.599-53.188-118.779-118.826-118.779
		c-65.616,0.011-118.791,53.181-118.791,118.779H3174.662h10.096c0-27.245,11.032-51.828,28.877-69.691
		c17.884-17.865,42.461-28.872,69.711-28.872c27.274,0,51.863,11.007,69.721,28.872c17.871,17.863,28.879,42.446,28.891,69.691
		c-0.012,27.279-11.03,51.862-28.891,69.728c-17.857,17.853-42.446,28.864-69.721,28.864c-27.263,0-51.827-11.012-69.711-28.864
		c-17.845-17.865-28.877-42.448-28.877-69.728H3174.662z"/>
	<path clip-path="url(#SVGID_2_)" fill="#A8AAAD" d="M2804.854,679.984h-10.108c0,65.646,53.164,118.808,118.815,118.808
		c65.617,0,118.767-53.162,118.767-118.808c0-65.599-53.149-118.769-118.767-118.779c-65.651,0-118.802,53.181-118.815,118.779
		H2804.854h10.095c0.013-27.256,11.02-51.828,28.879-69.691c17.871-17.865,42.46-28.872,69.733-28.872
		c27.261,0,51.839,11.007,69.698,28.859c17.846,17.876,28.853,42.448,28.853,69.704c0,27.279-11.02,51.862-28.853,69.728
		c-17.859,17.853-42.438,28.864-69.698,28.864c-27.273,0-51.862-11.012-69.733-28.864c-17.859-17.865-28.866-42.448-28.879-69.728
		H2804.854z"/>
	<path clip-path="url(#SVGID_2_)" fill="#A8AAAD" d="M2925.297,685.528l83.901-211.575c1.541-3.894,1.056-8.298-1.289-11.754
		c-2.357-3.458-6.282-5.533-10.459-5.533h-37.274c-6.984,0-12.646,5.654-12.646,12.634c0,6.967,5.662,12.628,12.646,12.628h18.686
		l-77.047,194.296c-2.563,6.48,0.607,13.818,7.094,16.395C2915.396,695.183,2922.734,692.01,2925.297,685.528"/>
	<polyline clip-path="url(#SVGID_2_)" fill="#A8AAAD" points="3199.131,462.218 3088.418,672.633 3110.785,684.406 
		3221.484,473.989 	"/>
	<polyline clip-path="url(#SVGID_2_)" fill="#A8AAAD" points="3180.906,512.933 2980.659,512.847 2980.646,538.11 3180.896,538.202 
			"/>
	<polyline clip-path="url(#SVGID_2_)" fill="#A8AAAD" points="3293.381,671.473 3180.774,524.183 3160.692,539.53 3273.312,686.812 
			"/>
	<polyline clip-path="url(#SVGID_2_)" fill="#A8AAAD" points="3115.559,678.616 2997.011,523.549 2976.931,538.889 
		3095.489,693.954 	"/>
	<polyline clip-path="url(#SVGID_2_)" fill="#A8AAAD" points="3283.357,666.51 3102.512,666.376 3102.475,691.641 3283.333,691.779 
			"/>
	<path clip-path="url(#SVGID_2_)" fill="#A8AAAD" d="M2897.051,680.87c0,9.094,7.388,16.498,16.511,16.498
		c9.1,0,16.498-7.404,16.498-16.498c0-9.131-7.398-16.559-16.498-16.559C2904.438,664.312,2897.051,671.739,2897.051,680.87"/>
	<path clip-path="url(#SVGID_2_)" fill="#A8AAAD" d="M3251.576,679.146c0,17.578,14.238,31.835,31.77,31.835
		c17.518,0,31.781-14.257,31.781-31.835c0-17.52-14.264-31.738-31.781-31.738C3265.814,647.407,3251.576,661.626,3251.576,679.146"
		/>
	<polyline clip-path="url(#SVGID_2_)" fill="#A8AAAD" points="3198.231,494.199 3205.096,472.069 3193.031,468.322 
		3186.167,490.456 	"/>
	<path clip-path="url(#SVGID_2_)" fill="#FFFFFF" d="M3217.863,411.647c-10.994-13.661-25.584-15.514-25.584-15.514l-94.19-98.453
		c-13.218-13.199-29.169-11.135-39.677-7.49l-2.212-3.657c8.942-13.97,7.41-29.691,6.828-34.379
		c-1.823-14.471-15.6-49.355-56.298-44.302c-38.293,4.677-44.561,42.418-38.742,58.63c1.884,5.175,5.612,13.247,5.612,13.247
		l-6.474,18.51l0.655-0.183l-0.098,0.225l11.321-2.764c16.341,16.705,36.74,13.898,40.906,13.073c1.7-0.348,3.172-0.772,4.775-1.179
		l8.054,4.962c-12.683,21.606,26.095,61.716,26.095,61.716l79.794,77.132l-56.979,115.135l17.265,137.25
		c0,0-14.883,10.089-21.48,14.433c-14.675,9.629-8.078,28.586,8.104,27.832l35.05-15.039c6.938-2.939,11.895-8.887,11.895-15.502
		l-3.123-137.98l92.271-116.062C3229.333,450.135,3230.863,427.794,3217.863,411.647"/>
	<path clip-path="url(#SVGID_2_)" fill="#A8AAAD" d="M3217.863,411.647l6.402-5.151c-13.181-16.193-29.945-18.35-30.941-18.508
		l-1.045,8.146l5.929-5.685l-94.167-98.442l-0.157-0.134c-9.293-9.379-20.593-12.713-30.25-12.629
		c-6.827,0-12.95,1.471-17.931,3.184l2.709,7.763l7.009-4.239l-2.175-3.645l-7.046,4.227l6.912,4.428
		c7.241-11.357,8.591-23.221,8.602-31.258c0-3.834-0.315-6.87-0.534-8.534v-0.05c-1.094-8.236-4.86-20.451-13.606-31.55
		c-8.65-11.037-23.155-20.524-43.067-20.428c-2.842,0-5.758,0.176-8.784,0.559l0.013-0.011
		c-17.275,2.041-29.898,10.574-37.395,21.175c-7.556,10.6-10.411,22.804-10.436,33.336c0.014,5.503,0.766,10.574,2.369,15.058v0.025
		c2.09,5.759,5.818,13.781,5.855,13.879l7.472-3.433l-7.763-2.714l-6.477,18.515c-1.006,2.885-0.304,6.123,1.812,8.345
		c2.102,2.229,5.283,3.1,8.235,2.256l0.632-0.189l-2.259-7.885l-7.509-3.334l-0.109,0.213c-1.251,2.848-0.803,6.207,1.204,8.594
		c1.991,2.399,5.198,3.458,8.237,2.722l11.345-2.745l-1.944-7.988l-5.854,5.747c13.242,13.557,29.035,16.273,38.839,16.236
		c4.434,0,7.763-0.511,9.513-0.862l0.035-0.013c2.066-0.419,3.719-0.88,5.176-1.257l-2.027-7.957l-4.302,6.99l8.067,4.964
		l4.288-6.992l-7.071-4.155c-2.648,4.478-3.705,9.453-3.691,14.208c0.036,7.302,2.27,14.245,5.211,20.787
		c8.989,19.445,25.475,36.229,25.742,36.585l0.195,0.202l75.492,72.958l-54.317,109.753c-0.704,1.428-0.982,3.073-0.789,4.664
		l17.251,137.251l8.152-1.021l-4.605-6.791c-0.023,0.013-14.907,10.089-21.369,14.372l0.012-0.013
		c-7.678,4.938-11.942,12.822-11.882,20.515c0,5.91,2.357,11.582,6.573,15.738c4.191,4.179,10.291,6.699,16.959,6.676l1.312-0.024
		l2.855-0.657l35.074-15.052l-0.037,0.013c4.641-1.97,8.734-4.951,11.783-8.863c3.062-3.863,5.115-8.808,5.115-14.189v-0.188
		l-3.073-135.002l90.435-113.756l0.316-0.431c4.836-7.083,7.325-16.237,7.362-26.139c0-11.012-3.293-23.119-11.481-33.318
		L3217.863,411.647l-6.403,5.151c5.518,6.827,7.862,15.216,7.862,23.016c0.036,6.967-2.005,13.333-4.446,16.789l6.755,4.685
		l-6.414-5.114l-92.283,116.069c-1.203,1.512-1.847,3.37-1.773,5.295l3.123,137.975l8.2-0.183h-8.2c0,1.216-0.438,2.562-1.593,4.051
		c-1.143,1.459-3,2.916-5.298,3.883l-0.036,0.013l-35.048,15.052l3.23,7.543l-0.388-8.2l-0.548,0.013
		c-2.722-0.023-4.289-0.881-5.418-1.943c-1.093-1.094-1.7-2.521-1.7-4.051c0.06-1.957,0.789-4.283,4.47-6.78l0.013-0.011
		c6.682-4.404,21.539-14.483,21.552-14.494c2.562-1.731,3.925-4.758,3.535-7.812l-16.923-134.82l55.871-112.905
		c1.58-3.201,0.9-7.069-1.664-9.542l-79.804-77.132l-5.699,5.897l5.905-5.698l-0.256-0.272c-1.384-1.47-8.237-8.893-14.53-18.151
		c-3.134-4.616-6.134-9.688-8.261-14.554c-2.126-4.865-3.315-9.494-3.292-12.987c0.012-2.466,0.498-4.294,1.434-5.897
		c2.259-3.846,1.021-8.809-2.782-11.147L3029,300.42c-1.907-1.161-4.168-1.507-6.318-0.96c-1.762,0.45-3.074,0.808-4.41,1.082
		l0.037-0.013c-0.826,0.165-3.171,0.547-6.317,0.547c-7.145-0.049-17.773-1.78-27.091-11.292c-2.043-2.077-4.982-2.929-7.812-2.242
		l-11.347,2.751l1.943,7.988l7.496,3.33l0.097-0.22c1.287-2.927,0.789-6.322-1.312-8.735c-2.09-2.399-5.405-3.383-8.467-2.502
		l-0.645,0.188l2.273,7.896l7.75,2.704l6.463-18.503c0.705-2.012,0.607-4.217-0.291-6.141c0-0.013-0.888-1.957-2.043-4.546
		c-1.116-2.575-2.479-5.818-3.304-8.072l0.013,0.024c-0.802-2.186-1.409-5.625-1.398-9.506c-0.023-7.526,2.211-16.645,7.362-23.769
		c5.224-7.145,12.927-12.751,26.061-14.434h0.013c2.379-0.298,4.627-0.438,6.754-0.438c14.785,0.104,23.714,6.263,30.214,14.245
		c6.403,7.926,9.561,18.114,10.169,23.362l-0.014-0.037c0.172,1.36,0.427,3.645,0.427,6.572c0.013,6.172-1.142,14.839-6.013,22.415
		c-1.689,2.623-1.727,5.995-0.123,8.662l2.198,3.645c2.007,3.304,6.075,4.786,9.72,3.517c3.718-1.282,8.127-2.29,12.55-2.277
		c6.33,0.078,12.452,1.731,18.659,7.829l5.796-5.812l-5.927,5.673l94.175,98.453c1.312,1.367,3.013,2.229,4.896,2.468l0.243-1.92
		l-0.291,1.92h0.048l0.243-1.92l-0.291,1.92c0.619,0.061,11.979,2.102,20.274,12.524L3217.863,411.647z"/>
	<path clip-path="url(#SVGID_2_)" fill="#FFFFFF" d="M2978.849,465.605c3.33-0.978,8.164-5.866,10.157-8.728l94.856-135.866
		c4.776-6.938,1.446-18.035-5.479-22.772c-6.938-4.829-17.931-4.58-22.718,2.363L2968.22,442.67c0,0-20.981,2.041-25.367,6.092
		c-6.78,6.299-8.577,23.04-6.122,25.458c1.554,1.567,8.043,3.383,8.043,3.383c1.457,0,14.431-11.997,14.431-11.997H2978.849z"/>
	<path clip-path="url(#SVGID_2_)" fill="#A8AAAD" d="M2978.849,465.605l2.332,7.879c4.021-1.318,6.343-3.37,8.771-5.461
		c2.321-2.144,4.289-4.317,5.796-6.444l94.882-135.914l-0.013,0.013c2.648-3.84,3.706-8.231,3.693-12.362
		c-0.121-8.595-4.057-16.734-11.297-21.861l0.036,0.031l0.023,0.011c-4.64-3.188-10.011-4.732-15.429-4.756
		c-6.682-0.023-14.153,2.575-18.732,9.209l-0.134,0.17l-87.569,142.257l7.011,4.294l-0.802-8.164
		c-0.123,0.012-5.505,0.522-11.651,1.609c-3.086,0.547-6.354,1.216-9.416,2.114c-3.109,1.02-5.855,1.737-9.075,4.514l-0.061,0.048
		l0.05-0.048c-4.107,3.904-6.184,8.631-7.666,13.26c-1.423,4.664-2.114,9.246-2.127,13.315c0.013,1.604,0.099,3.134,0.45,4.763
		c0.414,1.614,0.681,3.469,3.037,5.971l-0.024-0.013l-0.036-0.037c1.822,1.745,3.013,2.188,4.239,2.838
		c3.523,1.616,7.204,2.588,7.424,2.672l1.08,0.299h1.132c2.793-0.134,3.338-0.736,4.082-1.009c1.177-0.595,1.771-1.069,2.536-1.616
		c2.479-1.829,5.638-4.593,8.421-7.04c2.732-2.437,4.943-4.478,4.968-4.501l-5.576-6.039v8.214h20.837l1.14-0.335L2978.849,465.605
		v-8.206h-22.852l-2.357,2.175c-0.011,0.013-3.181,2.947-6.511,5.851c-1.653,1.451-3.341,2.897-4.58,3.869l-1.275,0.941
		l-0.024,0.023l2.393,3.998l-1.834-4.271l-0.559,0.272l2.393,3.998l-1.834-4.271l2.966,6.896v-7.49
		c-1.994,0.06-2.541,0.461-2.966,0.595l2.966,6.896v-7.49v8.211l2.211-7.915l-0.839-0.249l-3.136-1.08l-1.118-0.511h-0.023
		l-2.575,3.833l3.269-3.251l-0.693-0.582l-2.575,3.833l3.269-3.251l-0.049-0.023l-0.013-0.023l-3.317,3.358l4.8-0.995
		c-0.073,0.011,0.17-0.548-1.482-2.363l-3.317,3.358l4.8-0.995l-0.084-1.428c-0.014-2.065,0.461-5.492,1.396-8.45
		c0.861-2.981,2.381-5.46,3.146-6.08l0.061-0.056l-0.073,0.068l-1.409-1.52l1.068,1.779l0.341-0.26l-1.409-1.52l1.068,1.779
		c0.17-0.14,1.993-0.886,4.143-1.434c3.306-0.856,7.629-1.591,10.995-2.064c1.677-0.249,3.159-0.419,4.179-0.548l1.604-0.175
		l4.059-0.383l89.585-145.555l-6.985-4.3l6.754,4.664c0.705-1.099,2.432-2.076,5.225-2.102c2.138-0.029,4.507,0.718,6.037,1.815
		l0.036,0.014l0.026,0.023c2.138,1.271,4.275,5.357,4.142,8.298c0,1.403-0.327,2.376-0.788,3.031l-94.822,135.829
		c-0.474,0.729-1.943,2.424-3.364,3.693l-1.933,1.555l-0.559,0.335l-0.061,0.036l0.655,1.58l-0.498-1.641l-0.157,0.061l0.655,1.58
		l-0.498-1.641L2978.849,465.605v-8.206V465.605z"/>
	<path clip-path="url(#SVGID_2_)" fill="#A8AAAD" d="M2992.688,266.349c1.202,3.231-0.425,6.864-3.682,8.122
		c-3.329,1.329-6.998-0.274-8.236-3.505c-1.289-3.202,0.375-6.906,3.681-8.141C2987.705,261.544,2991.398,263.135,2992.688,266.349"
		/>
	<path clip-path="url(#SVGID_2_)" fill="#A8AAAD" d="M3108.561,306.603l-10.179,84.604l-9.866,13.036l0.23,10.126l12.879,15.094
		l13.52,2.686l46.033-17.512l21.357-43.232c0,0,12.355-32.236-19.461-49.853l-52.86-32.703l-23.448-3.706l-5.223,4.928
		C3081.543,290.07,3095.793,293.288,3108.561,306.603"/>
	<path clip-path="url(#SVGID_2_)" fill="#A8AAAD" d="M3108.561,306.603l-6.28-0.758l-9.987,82.915l-8.818,11.682
		c-0.862,1.141-1.289,2.508-1.264,3.94l0.219,10.127c0.036,1.47,0.57,2.86,1.519,3.966l12.878,15.096
		c0.911,1.069,2.188,1.816,3.57,2.089l13.522,2.686c1.167,0.236,2.345,0.139,3.487-0.285l46.02-17.52
		c1.493-0.569,2.732-1.688,3.426-3.11l21.346-43.225l0.243-0.54c0.145-0.444,2.745-7.235,2.77-16.833
		c0-6.153-1.118-13.545-4.896-20.87c-3.778-7.339-10.255-14.457-20.179-19.931l-3.061,5.521l3.314-5.368l-52.858-32.711
		l-2.332-0.856l-23.435-3.718c-1.944-0.31-3.901,0.297-5.322,1.641l-5.236,4.938c-1.688,1.604-2.381,4.009-1.761,6.257
		c0.618,2.253,2.418,3.984,4.702,4.495l0.023,0.011c0.936,0.213,13.108,3.506,23.824,14.73L3108.561,306.603l-6.28-0.758
		L3108.561,306.603l4.557-4.367c-14.093-14.644-29.51-18.149-30.178-18.325l-1.396,6.16l4.337,4.591l2.965-2.799l19.121,3.019
		l51.778,32.047l0.268,0.152c7.97,4.44,12.403,9.55,15.064,14.677c2.66,5.125,3.511,10.411,3.511,15.075
		c0,3.621-0.521,6.81-1.02,9.033l-0.693,2.563l-0.207,0.613l-0.048,0.122l1.057,0.389l-1.046-0.414l-0.011,0.025l1.057,0.389
		l-1.046-0.414l5.905,2.266l-5.674-2.8l-20.24,41.002l-42.034,16l-9.573-1.92l-10.011-11.704l-0.121-5.686l8.541-11.281l1.216-3.05
		l10.204-84.604c0.218-1.895-0.413-3.76-1.726-5.127L3108.561,306.603z"/>
	<path clip-path="url(#SVGID_2_)" fill="#50B956" d="M1675.665,1774.307l-6.11,7.301c26.277,29.243,40.759,68.143,40.734,109.498
		c-0.023,41.401-14.554,80.252-40.868,109.507l6.135,7.265c42.788-30.991,66.393-72.539,66.417-116.748
		C1741.985,1846.92,1718.454,1805.456,1675.665,1774.307"/>
	<path clip-path="url(#SVGID_2_)" fill="#50B956" d="M1566.643,1844.368l-3.718,4.75c6.123,11.25,9.463,26.145,9.452,41.938
		c-0.012,15.817-3.353,30.712-9.5,41.925l3.718,4.75c15.514-12.391,24.042-29.011,24.042-46.675
		C1590.648,1873.342,1582.156,1856.76,1566.643,1844.368"/>
	<path clip-path="url(#SVGID_2_)" fill="#50B956" d="M1622.271,1812.865l-4.677,5.979c14.031,19.268,21.758,44.938,21.746,72.236
		c-0.023,27.286-7.774,52.98-21.819,72.261l4.665,5.929c26.011-20.75,40.31-48.582,40.322-78.164
		C1662.532,1861.51,1648.27,1833.702,1622.271,1812.865"/>
	<path clip-path="url(#SVGID_2_)" fill="#50B956" d="M1877.529,2007.866l6.121-7.302c-26.289-29.254-40.759-68.129-40.732-109.509
		c0.023-41.38,14.541-80.255,40.855-109.509l-6.123-7.276c-42.812,31.003-66.394,72.552-66.417,116.762
		C1811.208,1935.252,1834.741,1976.705,1877.529,2007.866"/>
	<path clip-path="url(#SVGID_2_)" fill="#50B956" d="M1986.563,1937.804l3.706-4.763c-6.111-11.248-9.452-26.155-9.452-41.925
		c0.023-15.806,3.366-30.698,9.5-41.912l-3.705-4.776c-15.525,12.416-24.043,29.037-24.043,46.688
		C1962.546,1908.829,1971.037,1925.412,1986.563,1937.804"/>
	<path clip-path="url(#SVGID_2_)" fill="#50B956" d="M1930.923,1969.293l4.689-5.977c-14.057-19.243-21.771-44.938-21.746-72.236
		c0.023-27.262,7.774-52.981,21.83-72.249l-4.688-5.939c-26,20.75-40.3,48.582-40.323,78.188
		C1890.661,1920.674,1904.936,1948.482,1930.923,1969.293"/>
	<path clip-path="url(#SVGID_2_)" fill="#50B956" d="M1579.787,740.885c48.972-38.925,110.141-60.312,172.719-60.301
		c39.92,0,80.412,8.675,118.925,27.049c79.294,37.869,132.167,108.344,150.51,187.797l51.694-11.888
		c-21.711-94.512-84.971-178.744-179.353-223.781c-45.739-21.855-94.166-32.241-141.776-32.23
		c-74.642,0.013-147.316,25.416-205.727,71.818L1579.787,740.885z"/>
	<polygon clip-path="url(#SVGID_2_)" fill="#50B956" points="1624.3,754.766 1500.164,784.979 1536.063,662.344 	"/>
	<path clip-path="url(#SVGID_2_)" fill="#50B956" d="M1946.168,1167.854c-50.052,42.653-114.16,66.198-179.824,66.173
		c-39.933,0-80.438-8.649-118.96-27.042c-69.126-32.997-118.111-90.71-141.752-157.655l-50.028,17.647
		c28.039,79.629,86.705,148.67,168.928,187.898c45.752,21.843,94.19,32.229,141.813,32.218c78.322,0,154.483-27.968,214.243-78.845
		L1946.168,1167.854z"/>
	<polygon clip-path="url(#SVGID_2_)" fill="#50B956" points="1897.416,1156.87 2020.738,1123.479 1987.973,1247.014 	"/>
	<path clip-path="url(#SVGID_2_)" fill="#424143" d="M1131.316,599.803l6.171,7.191c5.649-4.854,12.306-7.145,18.272-7.132
		c6.208,0.043,11.396,2.302,14.991,6.608l131.06,158.565l7.302-6.05l-7.398,5.924c0.693,0.886,1.227,1.719,1.871,2.927l0.45,0.844
		l121.876,147.353l0.012,0.025c2.819,3.396,4.216,7.58,4.24,12.343c0.024,7.155-3.474,15.337-10.412,21.235l-0.048,0.036
		l0.024-0.023c-5.685,4.89-12.379,7.179-18.356,7.168c-6.221-0.044-11.409-2.303-14.931-6.561l0.024,0.042L1255.307,791.83
		l0.023,0.024c-0.631-0.783-1.226-1.712-1.907-3.006l-0.461-0.864l-121.767-147.229c-2.794-3.384-4.204-7.587-4.215-12.368
		c-0.025-7.197,3.486-15.435,10.484-21.369l0.024-0.023L1131.316,599.803l-6.147-7.218c-11.068,9.471-17.118,22.681-17.142,35.802
		c-0.012,8.651,2.722,17.398,8.565,24.438l121.147,146.483l7.301-6.032l-8.383,4.429c1.021,1.925,2.285,4.026,3.985,6.117
		l0.012,0.023l131.146,158.445l0.024,0.036c7.447,9.044,18.527,13.472,29.546,13.436c10.714,0,21.673-3.998,30.699-11.717
		l-0.023,0.011c11.006-9.432,17.032-22.565,17.056-35.655c0.025-8.644-2.733-17.392-8.588-24.431l-121.257-146.637l-7.313,6.044
		l8.371-4.465c-1.009-1.889-2.236-3.88-3.803-5.831l-0.048-0.066l-131.146-158.662l0.025,0.023
		c-7.484-9.058-18.563-13.498-29.582-13.461c-10.716,0-21.625,3.997-30.616,11.692l0.025-0.011v-0.013L1131.316,599.803z"/>
	<path clip-path="url(#SVGID_2_)" fill="#FFFFFF" d="M1189.156,288.666c-91.869-32.607-148.688,45.394-153.888,88.698
		c-1.568,13.722-2.309,36.264-2.309,36.264l-35.461,34.399l1.64,0.431l-0.462,0.364l28.695,6.592
		c18.053,56.279,67.244,72.851,77.546,75.813c4.252,1.105,8.103,1.842,12.185,2.686v38.65
		c-49.312,24.407-51.232,100.415-51.232,132.093v254.451c0,0-0.121,1.834-0.121,4.744l-108.391,214.801
		c-1.762,2.516-3.401,5.176-4.786,8.043l-117.431,240.157l-54.511-26.996c-21.273-10.569-47.186-1.845-57.804,19.414
		c-10.521,21.311-1.773,47.212,19.536,57.694c0,0,26.399,13.838,87.313,44.052c60.975,30.227,80.4-27.007,80.4-27.007l0.62-1.189
		l1.543-2.648l25.39-51.889l5.479-11.14l-0.048-0.073l96.728-197.769c0.778-1.689,1.251-3.39,1.907-5.066
		c2.139-1.944,3.997-4.009,5.358-6.33l168.637-191.457l-0.072-0.134c23.276-27.311,18.393-67.207,18.393-67.207v-255.35
		c0,0,1.289-96.624-46.942-128.643V533.19c54.438-15.898,74.314-67.189,79.149-80.826
		C1278.499,417.723,1286.833,323.26,1189.156,288.666"/>
	<path clip-path="url(#SVGID_2_)" fill="#424143" d="M1189.156,288.666l3.17-8.937c-16.121-5.722-31.465-8.297-45.788-8.297
		c-36.276-0.024-65.542,16.534-85.807,37.559c-20.312,21.151-32.267,46.474-34.867,67.242v0.05
		c-1.639,14.414-2.369,36.895-2.381,37.022l9.476,0.322l-6.596-6.804l-35.462,34.395c-2.442,2.374-3.426,5.885-2.563,9.184
		c0.85,3.304,3.414,5.879,6.706,6.779l1.652,0.438l2.443-9.161l-5.904-7.398l-0.462,0.358c-2.831,2.267-4.13,5.971-3.329,9.508
		c0.802,3.528,3.584,6.316,7.107,7.137l28.695,6.597l2.126-9.245l-9.038,2.897c9.719,30.316,28.051,50.246,45.132,62.662
		c17.106,12.452,33.009,17.677,38.84,19.358l0.219,0.062c4.629,1.208,8.687,1.963,12.646,2.801l1.932-9.282h-9.476v38.65h9.476
		l-4.204-8.486c-14.08,6.956-24.747,17.653-32.571,29.852c-11.759,18.308-17.542,39.957-20.615,60.021
		c-3.05,20.063-3.305,38.663-3.305,50.707v254.451h9.463l-9.438-0.657c-0.012,0.178-0.159,2.211-0.159,5.401h9.477l-8.456-4.271
		l-108.402,214.807l8.467,4.265l-7.788-5.394c-1.932,2.77-3.863,5.845-5.54,9.343l0.037-0.074l-113.251,231.616l-45.983-22.766
		h0.012c-7.459-3.718-15.454-5.491-23.301-5.491c-19.33-0.013-37.965,10.716-47.186,29.157l-0.024,0.048
		c-3.681,7.448-5.443,15.405-5.443,23.229c-0.012,19.341,10.752,38.002,29.278,47.138l4.192-8.493l-4.41,8.395
		c0.084,0.037,26.557,13.898,87.519,44.125c13.764,6.828,26.168,9.817,37.188,9.817c10.436,0.011,19.511-2.71,26.861-6.768
		c11.055-6.136,18.284-14.955,22.852-22.099c4.556-7.217,6.5-12.878,6.681-13.389l-8.978-3.037l8.419,4.337l0.511-0.972l1.409-2.442
		l0.329-0.605l25.39-51.889l-0.012,0.037l5.491-11.153c1.786-3.668,1.069-8.018-1.81-10.886l-0.049-0.048l-6.694,6.682l8.516,4.179
		l96.716-197.781l0.085-0.194c1.179-2.575,1.701-4.495,2.126-5.539l-8.808-3.499l6.427,6.974c2.515-2.334,5.066-5.043,7.12-8.541
		l-8.188-4.763l7.095,6.257l168.662-191.457c2.624-2.984,3.11-7.303,1.203-10.795l-0.073-0.141l-8.321,4.545l7.216,6.146
		c18.746-22.22,20.993-49.828,21.066-64.254c0-6.087-0.438-9.933-0.474-10.242l-9.416,1.143h9.476v-255.35h-9.476l9.476,0.128
		l0.012-0.851c-0.012-4.858-0.291-29.764-6.536-57.943c-3.134-14.099-7.763-29.024-14.809-42.745
		c-7.07-13.71-16.62-26.339-29.85-35.134l-5.236,7.902h9.463V533.19h-9.463l2.661,9.094c29.607-8.633,49.883-27.02,63.101-44.671
		c13.229-17.677,19.753-34.861,22.317-42.071c4.204-11.918,7.776-29.262,7.788-49.143c0-22.031-4.471-47.222-18.223-70.354
		c-13.715-23.138-36.896-43.796-72.395-56.316h0.012L1189.156,288.666l-3.158,8.929c31.842,11.335,50.83,28.763,62.419,48.146
		c11.566,19.383,15.562,41.142,15.562,60.658c0.012,17.52-3.28,33.203-6.706,42.806c-2.26,6.408-8.091,21.686-19.621,37.035
		c-11.541,15.374-28.427,30.591-53.247,37.856c-4.033,1.184-6.815,4.891-6.815,9.094v41.925c0,3.159,1.591,6.136,4.24,7.886
		c9.658,6.408,17.421,16.26,23.459,28.013c9.087,17.58,14.056,39.14,16.559,56.991c2.54,17.864,2.697,32.012,2.685,35.03v0.602
		v0.121v255.35l0.072,1.16v0.037c0.049,0.461,0.353,3.406,0.353,7.902c0.085,12.324-2.502,35.699-16.559,51.959
		c-2.54,2.989-2.976,7.241-1.094,10.685l0.061,0.141l8.322-4.543l-7.107-6.257l-168.648,191.444l-1.07,1.495
		c-0.655,1.143-1.846,2.553-3.583,4.143c-1.057,0.985-1.847,2.139-2.393,3.464c-0.887,2.319-1.312,3.802-1.702,4.591l8.602,3.974
		l-8.516-4.168l-96.728,197.781c-1.774,3.62-1.033,8.007,1.81,10.862l0.049,0.047l6.706-6.681l-8.504-4.203l-5.491,11.164v0.013
		l-25.233,51.559l-1.373,2.369l-0.243,0.426l-0.62,1.19l-0.546,1.312l1.712,0.558l-1.701-0.583l-0.012,0.025l1.712,0.558
		l-1.701-0.583c-0.109,0.366-3.098,8.359-9.403,15.611c-6.427,7.313-15.247,13.739-29.048,13.789
		c-7.605,0-17.057-2.041-28.756-7.823c-30.444-15.088-52.24-26.107-66.441-33.323c-7.083-3.61-12.271-6.27-15.684-8.032
		c-3.402-1.748-5.029-2.6-5.029-2.6l-0.207-0.121c-11.821-5.795-18.673-17.726-18.685-30.129c0-5.005,1.105-10.047,3.474-14.845
		l-0.012,0.023c5.867-11.798,17.834-18.659,30.226-18.659c5.018,0,10.059,1.129,14.87,3.498l0.012,0.023l54.511,26.995
		c2.272,1.117,4.86,1.287,7.265,0.462c2.405-0.802,4.337-2.528,5.455-4.8l117.43-240.167l0.037-0.074
		c1.082-2.26,2.442-4.459,4.01-6.73l0.668-1.118l108.402-214.813c0.668-1.331,1.009-2.759,1.009-4.264
		c0-1.319,0.037-2.376,0.062-3.086l0.036-0.783l0.013-0.201l0.024-0.674V704.656c-0.012-15.586,0.522-41.802,6.828-66.435
		c3.146-12.301,7.703-24.146,14.093-34.046c6.39-9.927,14.469-17.877,25.039-23.113c3.219-1.591,5.272-4.902,5.272-8.499v-38.65
		c0-4.49-3.158-8.371-7.543-9.282c-4.18-0.856-7.849-1.567-11.724-2.575l-2.393,9.172l2.612-9.111
		c-4.458-1.276-18.308-5.819-32.899-16.454c-14.603-10.674-29.898-27.172-38.244-53.133c-1.034-3.196-3.633-5.589-6.901-6.349
		l-28.671-6.591l-2.138,9.232l5.917,7.411l0.461-0.358c2.782-2.229,4.094-5.861,3.353-9.343c-0.716-3.498-3.365-6.299-6.815-7.229
		l-1.628-0.438l-2.465,9.161l6.609,6.803l35.45-34.411c1.773-1.706,2.794-4.032,2.879-6.481c0-0.011,0.17-5.547,0.56-12.81
		c0.376-7.241,0.947-16.226,1.688-22.694v0.048c1.749-15.361,12.1-38.263,29.667-56.316c17.627-18.161,41.828-31.762,72.188-31.786
		c12.064,0,25.185,2.156,39.447,7.216h0.013L1189.156,288.666z"/>
	<path clip-path="url(#SVGID_2_)" fill="#424143" d="M1051.171,498.798l34.235-10.09c4.349-1.275,6.839-5.845,5.552-10.187
		c-1.288-4.356-5.844-6.841-10.193-5.56l-34.235,10.09c-4.349,1.281-6.84,5.843-5.564,10.187
		C1042.253,497.595,1046.821,500.079,1051.171,498.798"/>
	<path clip-path="url(#SVGID_2_)" fill="#424143" d="M1088.528,404.565c-0.802,8.127-8.067,14.024-16.267,13.327
		c-8.334-0.735-14.433-7.951-13.667-16.109c0.813-8.072,8.103-14.088,16.376-13.291
		C1083.134,389.191,1089.294,396.431,1088.528,404.565"/>
	<path clip-path="url(#SVGID_2_)" fill="#FFFFFF" d="M1510.211,1350.923l-0.534-0.73l-1.98-2.829l-22.062-27.201l-3.632-4.459v0.023
		l-138.861-170.908c-1.129-1.396-2.49-2.515-3.693-3.814c-0.911-2.782-2.053-5.357-3.559-7.616l-128-262.377
		c0,0-47.866,29.606-61.679,41.962c-17.008,15.434-51.996,69.903-39.361,88.723l155.929,196.967
		c1.568,2.479,3.074,4.993,5.054,7.422l150.013,184.613l-47.417,38.073c-18.539,14.907-21.503,42.085-6.646,60.563
		c14.895,18.575,42.023,21.539,60.562,6.645c0,0,23.653-18.199,76.622-60.817C1554.02,1392.581,1510.211,1350.923,1510.211,1350.923
		"/>
	<path clip-path="url(#SVGID_2_)" fill="#424143" d="M1112.728,1024.389l157.412,198.681l7.423-5.893l-8.006,5.066
		c1.385,2.198,3.037,4.981,5.455,7.944l-0.037-0.047l135.617,166.91l-37.321,29.982c-12.343,9.901-18.77,24.518-18.757,39.182
		c0,10.98,3.62,22.11,11.006,31.293c9.877,12.369,24.479,18.796,39.119,18.783c11.008,0.013,22.16-3.621,31.381-11.055l-5.929-7.362
		l5.784,7.496c0.06-0.05,22.45-17.265,72.503-57.537c10.241-8.224,17.36-16.754,21.904-25.355
		c4.531-8.575,6.415-17.214,6.402-25.073c-0.024-13.048-4.847-23.764-9.439-31.199c-4.64-7.435-9.148-11.76-9.561-12.148
		l-6.512,6.864l7.604-5.675l-0.438-0.558l-1.821-2.589l-0.365-0.498l-20.847-25.681l-3.402-4.204
		c-2.527-3.11-6.743-4.301-10.533-2.977c-3.778,1.349-6.317,4.92-6.317,8.929v0.025h9.488l7.351-5.978l-131.11-161.336l0.037,0.024
		c-1.882-2.272-3.401-3.475-3.972-4.155l-6.901,6.5l9.002-2.927c-1.045-3.244-2.455-6.477-4.483-9.526l-7.885,5.261l8.577-4.021
		l-101.563-215.87c-2.223-4.731-7.873-6.772-12.598-4.531c-4.75,2.229-6.767,7.867-4.544,12.604l101.564,215.865l0.693,1.229
		c0.802,1.202,1.567,2.806,2.21,4.82c0.438,1.326,1.179,2.578,2.126,3.574c1.713,1.784,2.758,2.695,3.001,3.06l0.024,0.026
		l131.109,161.358c2.527,3.11,6.742,4.302,10.533,2.964c3.766-1.348,6.293-4.932,6.293-8.94v-0.025h-9.464l-7.374,5.979l3.426,4.202
		l20.629,25.439l1.701,2.406l0.146,0.206l0.498,0.682l1.07,1.202l2.562-2.672l-2.599,2.646l0.037,0.025l2.562-2.672l-2.599,2.646
		c0.084,0.073,3.571,3.513,6.851,8.967c3.317,5.442,6.305,12.755,6.281,20.678c0,4.968-1.094,10.277-4.215,16.23
		c-3.123,5.929-8.383,12.489-17.009,19.414c-25.002,20.116-43.042,34.466-54.863,43.759c-5.904,4.653-10.242,8.043-13.109,10.278
		c-2.855,2.211-4.216,3.268-4.216,3.268l-0.158,0.122c-5.782,4.641-12.634,6.864-19.523,6.864c-9.147,0-18.15-3.961-24.346-11.664
		c-4.592-5.758-6.828-12.586-6.828-19.461c0.013-9.186,3.985-18.225,11.663-24.396l44.769-35.959c1.968-1.58,3.22-3.864,3.487-6.391
		c0.268-2.527-0.462-5.004-2.065-6.975l-141.63-174.298l-0.024-0.034c-1.324-1.605-2.526-3.561-4.082-6.052l-0.583-0.826
		l-157.412-198.661c-3.244-4.107-9.208-4.795-13.314-1.543C1110.166,1014.323,1109.485,1020.281,1112.728,1024.389"/>
	<path clip-path="url(#SVGID_2_)" fill="#FBBEA7" d="M1174.748,968.735c-162.903,0-179.109-24.979-179.109-86.349V699.154
		c0-4.538,3.656-8.206,8.201-8.206h55.52v-3.372c0.048-77.516,45.752-130.29,113.7-131.297
		c68.166,1.007,113.87,53.781,113.943,131.297v3.372h58.58c4.556,0,8.213,3.668,8.213,8.206v183.232
		C1353.796,943.757,1337.626,968.735,1174.748,968.735"/>
	<path clip-path="url(#SVGID_2_)" fill="#424143" d="M1173.193,564.479c62.032,0.929,105.536,49.584,105.597,123.084v11.591h66.793
		v183.232c0,52.623-5.734,78.154-170.847,78.154c-165.114,0-170.873-25.531-170.873-78.154V699.154h63.72v-11.591
		C1067.62,614.063,1111.113,565.408,1173.193,564.479 M1173.193,548.054h-0.243c-70.245,1.058-119.738,56.182-121.731,134.694
		h-47.356c-9.075,0-16.425,7.35-16.425,16.406v183.232c0,70.949,27.067,94.561,187.297,94.561
		c160.205,0,187.261-23.611,187.261-94.561V699.154c0-9.057-7.338-16.406-16.414-16.406h-50.429
		c-2.016-78.513-51.51-133.637-121.706-134.694H1173.193z"/>
	<path clip-path="url(#SVGID_2_)" fill="#FFFFFF" d="M1240.776,692.6h-135.3v-2.125c-0.025-13.401-0.025-38.281,9.256-58.546
		c10.278-22.433,29.401-33.342,58.46-33.342c20.312,0,36.081,5.497,46.93,16.37c20.775,20.854,20.702,57.749,20.653,75.491V692.6z"
		/>
	<path clip-path="url(#SVGID_2_)" fill="#424143" d="M1173.193,589.105c75.941,0,77.144,69.872,77.072,101.374v11.597h-154.253
		v-11.597C1095.976,658.978,1097.263,589.105,1173.193,589.105 M1173.193,608.051c-17.932,0-31.113,4.453-40.236,13.605
		c-15.696,15.715-17.713,43.622-17.969,61.467H1231.3c-0.242-17.889-2.235-45.787-17.895-61.478
		C1204.27,612.504,1191.124,608.051,1173.193,608.051"/>
	<path clip-path="url(#SVGID_2_)" fill="#FFFFFF" d="M1143.416,922.795c-13.108,0-23.847-10.533-23.897-23.538l-0.182-66.217
		c-0.048-13.048,10.667-23.753,23.848-23.8l137.913-0.383h0.097c13.206,0,23.946,10.582,23.982,23.635c0,0,0.17,55.106,0.17,66.728
		c0,14.02-9.597,23.502-23.896,23.575h-0.036h-137.902H1143.416z"/>
	<path clip-path="url(#SVGID_2_)" fill="#FFFFFF" d="M1281.159,815.144c9.767,0,17.676,7.691,17.7,17.367
		c0,0,0.194,55.101,0.194,66.72c0,11.622-7.848,17.216-17.627,17.253h-137.914h-0.036c-9.719,0-17.615-7.624-17.64-17.253
		l-0.195-66.209c-0.024-9.701,7.849-17.428,17.58-17.465l137.901-0.413H1281.159 M1281.159,802.522h-0.025h-0.048l-137.901,0.406
		c-8.054,0.023-15.623,3.134-21.296,8.759c-5.747,5.686-8.893,13.285-8.88,21.389l0.182,66.191
		c0.061,16.456,13.655,29.844,30.287,29.844h137.949c17.834-0.073,30.25-12.366,30.25-29.881c0-11.632-0.182-66.756-0.182-66.756
		C1311.446,815.958,1297.839,802.522,1281.159,802.522"/>
	<path clip-path="url(#SVGID_2_)" fill="#EC2427" d="M1298.859,832.517l4.422-0.011c-0.024-12.168-9.986-21.796-22.122-21.772
		h-0.085h0.012l-137.876,0.408c-12.077,0.011-21.989,9.682-21.978,21.838v0.134l4.41-0.086l-4.41,0.013l0.17,66.204
		c0.048,12.13,10.011,21.686,22.086,21.661h0.023l-0.012-3.749l-0.085,3.749h0.097l-0.012-3.749l-0.085,3.749h0.049h137.973
		c5.71-0.025,11.226-1.671,15.429-5.412c4.192-3.73,6.646-9.482,6.597-16.263c0-11.643-0.183-66.725-0.183-66.725L1298.859,832.517
		l-4.41,0.013c0,0.073,0.183,55.113,0.183,66.701c-0.05,4.831-1.52,7.692-3.681,9.684c-2.188,1.963-5.468,3.134-9.55,3.146h0.037
		h-137.925v4.428l0.11-4.428h-0.133c-7.374-0.013-13.218-5.722-13.243-12.841l-0.182-66.24v-0.037l-1.604,0.037h1.604v-0.037
		l-1.604,0.037h1.604c0.013-7.205,5.832-12.95,13.169-13.006l137.925-0.396h0.012l-0.012-1.59v1.59h0.012l-0.012-1.59v1.59
		c7.422,0.014,13.253,5.746,13.29,12.951L1298.859,832.517z"/>
	<polyline clip-path="url(#SVGID_2_)" fill="#EC2427" points="1129.931,841.822 1299.917,841.822 1299.917,835.506 
		1129.931,835.506 	"/>
	<path clip-path="url(#SVGID_2_)" fill="#EC2427" d="M1193.53,891.955c0-4.258-3.512-7.8-7.836-7.8
		c-4.374,0-7.848,3.621-7.848,7.848c0.036,4.241,3.511,7.812,7.908,7.788C1190.055,899.778,1193.53,896.182,1193.53,891.955"/>
	<path clip-path="url(#SVGID_2_)" fill="#EC2427" d="M1246.754,891.79c0-4.233-3.584-7.817-7.885-7.805
		c-4.337,0.031-7.8,3.62-7.8,7.854c0.048,4.239,3.487,7.811,7.823,7.811C1243.218,899.613,1246.754,896.019,1246.754,891.79"/>
	<path clip-path="url(#SVGID_2_)" fill="#FFFFFF" d="M1185.803,644.843l-121.171,146.509c-0.85,1.604-1.738,3.158-2.928,4.531
		L930.595,954.418c-10.885,13.09-31.793,13.352-46.761,0.576c-14.955-12.804-18.295-33.816-7.411-46.9l121.306-146.707
		c0.827-1.483,1.737-2.977,2.818-4.32l114.636-138.599L1185.803,644.843"/>
	<path clip-path="url(#SVGID_2_)" fill="#424143" d="M1172.415,650.735L917.231,960.286l0.012-0.013
		c-3.596,4.281-8.783,6.542-14.991,6.584c-5.966,0-12.648-2.277-18.345-7.155h-0.012l0.024,0.013
		c-6.998-5.96-10.521-14.197-10.484-21.37c0.012-4.745,1.409-8.898,4.204-12.271l254.552-303.937
		c3.354-4.011,2.831-9.981-1.178-13.341c-4.01-3.358-9.999-2.837-13.352,1.174L863.096,913.932l-0.012,0.013
		c-5.88,7.046-8.626,15.774-8.614,24.4c0.025,13.134,6.099,26.296,17.118,35.765l0.048,0.037l-0.037-0.023
		c9.027,7.684,19.948,11.669,30.652,11.682c11.006,0.035,22.062-4.394,29.545-13.414l0.024-0.023l255.22-309.58
		c3.329-4.04,2.758-10.011-1.288-13.333C1181.709,646.118,1175.756,646.689,1172.415,650.735"/>
	<path clip-path="url(#SVGID_2_)" fill="#FFFFFF" d="M726.387,2112.891c-53.054,0-96.522-42.641-96.729-95.27l-0.741-268.049
		c-0.195-52.824,43.188-96.146,96.533-96.341l558.272-1.555h0.401c53.454,0,96.934,42.837,97.08,95.685
		c0,0,0.68,223.074,0.68,270.113c0,56.735-38.852,95.125-96.728,95.416h-0.146H726.787H726.387z"/>
	<path clip-path="url(#SVGID_2_)" fill="#FFFFFF" d="M1283.965,1677.141c39.544,0,71.556,31.125,71.665,70.293
		c0,0,0.778,223.051,0.778,270.091c0,47.039-31.77,69.686-71.362,69.83H726.787h-0.146c-39.35,0-71.302-30.858-71.411-69.83
		l-0.777-268.025c-0.11-39.266,31.756-70.548,71.154-70.694l558.211-1.664H1283.965 M1283.965,1626.043h-0.085h-0.207
		l-558.223,1.641c-32.595,0.097-63.233,12.694-86.208,35.461c-23.252,23.012-35.984,53.771-35.947,86.572l0.74,267.953
		c0.244,66.6,55.277,120.808,122.606,120.808h558.404c72.201-0.304,122.472-50.078,122.472-120.953
		c0-47.089-0.753-270.237-0.753-270.237C1406.57,1680.421,1351.488,1626.043,1283.965,1626.043"/>
	<path clip-path="url(#SVGID_2_)" fill="#6B6C6C" d="M1355.63,1747.458l17.896-0.05c-0.098-49.25-40.431-88.225-89.561-88.125
		h-0.341h0.049l-558.113,1.65c-48.886,0.05-89.014,39.192-88.977,88.395v0.535l17.871-0.341l-17.871,0.05l0.704,268.001
		c0.195,49.093,40.516,87.774,89.391,87.678h0.109l-0.048-15.175l-0.352,15.175h0.4l-0.048-15.175l-0.352,15.175h0.206h558.515
		c23.107-0.097,45.437-6.768,62.456-21.905c16.96-15.102,26.898-38.391,26.703-65.821c0-47.137-0.741-270.116-0.741-270.116
		L1355.63,1747.458l-17.858,0.048c0,0.293,0.729,223.1,0.729,270.019c-0.194,19.534-6.136,31.125-14.895,39.191
		c-8.845,7.946-22.123,12.684-38.645,12.733h0.146h-558.32v17.931l0.437-17.931h-0.546c-29.838-0.05-53.491-23.158-53.601-51.975
		l-0.729-268.146v-0.146l-6.487,0.146h6.487v-0.146l-6.487,0.146h6.487c0.048-29.157,23.604-52.434,53.309-52.652l558.308-1.604
		h0.048l-0.048-6.438v6.438h0.048l-0.048-6.438v6.438c30.056,0.049,53.649,23.277,53.807,52.434L1355.63,1747.458z"/>
	<polyline clip-path="url(#SVGID_2_)" fill="#6B6C6C" points="671.814,1785.117 1359.906,1785.117 1359.906,1759.557 
		671.814,1759.557 	"/>
	<path clip-path="url(#SVGID_2_)" fill="#6B6C6C" d="M929.258,1988.052c0-17.229-14.214-31.562-31.721-31.562
		c-17.7,0-31.769,14.651-31.769,31.757c0.146,17.179,14.215,31.636,32.012,31.539
		C915.19,2019.735,929.258,2005.168,929.258,1988.052"/>
	<path clip-path="url(#SVGID_2_)" fill="#6B6C6C" d="M1144.705,1987.395c0-17.129-14.519-31.646-31.927-31.586
		c-17.556,0.109-31.576,14.64-31.576,31.782c0.195,17.166,14.129,31.623,31.685,31.623
		C1130.393,2019.067,1144.705,2004.514,1144.705,1987.395"/>
	<path clip-path="url(#SVGID_2_)" fill="#FFFFFF" d="M2271.295,2121.76c-53.054,0-96.523-42.641-96.729-95.283l-0.741-268.036
		c-0.194-52.823,43.188-96.145,96.532-96.341l558.272-1.554h0.401c53.455,0,96.936,42.836,97.08,95.671
		c0,0,0.682,223.074,0.682,270.115c0,56.746-38.852,95.137-96.729,95.428h-0.145h-558.225H2271.295z"/>
	<path clip-path="url(#SVGID_2_)" fill="#FFFFFF" d="M2828.872,1685.996c39.545,0,71.556,31.139,71.666,70.307
		c0,0,0.778,223.038,0.778,270.077c0,47.041-31.77,69.686-71.363,69.832h-558.259h-0.145c-39.35,0-71.303-30.858-71.412-69.832
		l-0.776-268.013c-0.109-39.277,31.757-70.561,71.155-70.705l558.211-1.666H2828.872 M2828.872,1634.899h-0.085h-0.206
		l-558.224,1.64c-32.595,0.098-63.232,12.696-86.207,35.462c-23.252,23.023-35.983,53.782-35.946,86.584l0.739,267.954
		c0.243,66.6,55.276,120.794,122.606,120.794h558.403c72.201-0.304,122.473-50.065,122.473-120.953
		c0-47.089-0.754-270.236-0.754-270.236C2951.479,1689.289,2896.396,1634.899,2828.872,1634.899"/>
	<path clip-path="url(#SVGID_2_)" fill="#6B6C6C" d="M2900.538,1756.313l17.895-0.036c-0.097-49.251-40.431-88.225-89.561-88.126
		h-0.339h0.048l-558.113,1.64c-48.887,0.048-89.014,39.19-88.978,88.406v0.534l17.871-0.341l-17.871,0.05l0.705,267.989
		c0.194,49.093,40.516,87.773,89.391,87.677h0.108l-0.048-15.161l-0.352,15.161h0.399l-0.048-15.161l-0.352,15.161h0.205h558.514
		c23.108-0.097,45.438-6.755,62.457-21.903c16.96-15.102,26.899-38.379,26.703-65.823c0-47.136-0.741-270.103-0.741-270.103
		L2900.538,1756.313l-17.858,0.061c0,0.293,0.729,223.087,0.729,270.006c-0.193,19.548-6.135,31.138-14.895,39.192
		c-8.844,7.945-22.123,12.695-38.645,12.745h0.145h-558.319v17.919l0.439-17.919h-0.548c-29.838-0.05-53.491-23.168-53.602-51.985
		l-0.729-268.135v-0.146l-6.487,0.146h6.487v-0.146l-6.487,0.146h6.487c0.05-29.168,23.605-52.434,53.309-52.653l558.308-1.604h0.05
		l-0.05-6.438v6.438h0.05l-0.05-6.438v6.438c30.056,0.05,53.65,23.265,53.808,52.434L2900.538,1756.313z"/>
	<polyline clip-path="url(#SVGID_2_)" fill="#6B6C6C" points="2216.722,1793.986 2904.814,1793.986 2904.814,1768.415 
		2216.722,1768.415 	"/>
	<path clip-path="url(#SVGID_2_)" fill="#6B6C6C" d="M2474.165,1996.92c0-17.228-14.214-31.562-31.72-31.562
		c-17.701,0-31.768,14.651-31.768,31.757c0.145,17.166,14.213,31.623,32.011,31.526
		C2460.098,2028.591,2474.165,2014.026,2474.165,1996.92"/>
	<path clip-path="url(#SVGID_2_)" fill="#6B6C6C" d="M2689.612,1996.264c0-17.141-14.518-31.66-31.927-31.598
		c-17.557,0.107-31.576,14.638-31.576,31.793c0.196,17.153,14.13,31.61,31.684,31.61
		C2675.3,2027.923,2689.612,2013.369,2689.612,1996.264"/>
	<path clip-path="url(#SVGID_2_)" fill="#7FC342" d="M1309.38,1739.585c0,4.082-3.304,7.386-7.386,7.386l0,0
		c-4.082,0-7.387-3.304-7.387-7.386v-18.659c0-4.082,3.305-7.389,7.387-7.389l0,0c4.082,0,7.386,3.307,7.386,7.389V1739.585z"/>
	<path clip-path="url(#SVGID_2_)" fill="#7FC342" d="M2853.924,1747.736c0,4.082-3.305,7.388-7.387,7.388l0,0
		c-4.081,0-7.386-3.306-7.386-7.388v-18.66c0-4.082,3.305-7.386,7.386-7.386l0,0c4.082,0,7.387,3.304,7.387,7.386V1747.736z"/>
</g>
</svg>
